<svg version="1.1" id="Layer_1" xmlns="http://www.w3.org/2000/svg" xmlns:xlink="http://www.w3.org/1999/xlink" x="0px" y="0px"
	 width="100%" viewBox="0 0 604 413" enable-background="new 0 0 604 413" xml:space="preserve">
<path fill="#000000" opacity="1.000000" stroke="none" 
	d="
M437.000000,414.000000 
	C291.333374,414.000000 146.166733,414.000000 1.000078,414.000000 
	C1.000052,276.333405 1.000052,138.666809 1.000026,1.000152 
	C202.333206,1.000101 403.666412,1.000101 604.999756,1.000051 
	C604.999817,138.666519 604.999817,276.333038 604.999878,413.999756 
	C549.166687,414.000000 493.333344,414.000000 437.000000,414.000000 
M210.651184,333.471710 
	C210.555557,335.076935 210.258987,338.065338 210.393723,338.084961 
	C213.709259,338.566681 217.188507,339.369720 220.390121,338.775970 
	C223.532272,338.193298 224.432892,335.270813 223.820251,332.004456 
	C223.520737,330.407623 223.793259,328.703522 224.453873,326.730682 
	C226.987946,324.381836 229.522018,322.032959 232.318787,319.440613 
	C228.871658,316.681244 226.749161,316.963104 224.250687,318.897949 
	C222.376831,320.349091 219.917892,321.023163 217.787216,322.169159 
	C214.408768,323.986328 211.874237,321.952454 210.692383,319.581329 
	C209.481812,317.152649 208.938843,313.709869 209.721237,311.219055 
	C210.207611,309.670624 213.730423,308.187134 215.834045,308.261841 
	C218.430984,308.354065 220.913177,310.286987 223.552277,311.056427 
	C225.404449,311.596405 227.436035,311.520966 229.387512,311.720367 
	C228.796234,309.678833 228.789536,307.105530 227.505585,305.694092 
	C223.427948,301.211456 213.700165,300.156952 207.895798,303.211121 
	C205.877243,304.273224 203.273560,305.254028 202.261826,307.027649 
	C196.646133,316.872101 202.236557,327.597565 213.098022,329.542694 
	C212.395325,330.696716 211.692612,331.850769 211.001007,332.998444 
	C211.001007,332.998444 211.011246,332.986786 210.651184,333.471710 
M406.480774,292.272522 
	C405.013641,293.806763 402.588013,295.165924 402.269501,296.909912 
	C401.494812,301.151550 398.907898,303.780609 396.185272,306.690155 
	C392.282043,310.861450 392.535614,320.805084 396.250122,325.400177 
	C398.980438,328.777802 408.628326,330.525024 412.999146,327.949005 
	C415.622131,326.403076 417.332794,325.975677 420.054596,327.972412 
	C423.152893,330.245453 426.382050,328.502655 426.374817,324.852753 
	C426.362305,318.541656 426.125153,312.219757 425.669373,305.925049 
	C425.410431,302.349213 423.365692,301.285767 420.171051,303.327087 
	C419.343781,303.855713 418.572388,304.471710 418.073975,304.831818 
	C415.413513,303.905273 413.025116,303.287933 410.850067,302.231384 
	C409.646545,301.646729 408.610107,300.441315 407.904999,299.270782 
	C407.684113,298.904144 408.864990,297.027069 409.273438,297.070526 
	C410.571198,297.208527 412.016357,297.665619 413.023804,298.473907 
	C415.133362,300.166382 417.040497,301.274689 419.409821,298.879242 
	C416.748138,294.242798 414.199463,289.911804 407.626587,291.357239 
	C407.431152,291.547424 407.254883,291.753967 406.480774,292.272522 
M406.002747,148.978729 
	C406.002747,148.978729 406.169220,149.145538 406.418457,149.723938 
	C409.376129,156.730392 412.396759,163.711639 415.223999,170.770355 
	C415.650330,171.834747 415.174591,173.260437 415.116119,174.519012 
	C413.749359,174.358856 412.366791,174.276672 411.022919,174.003891 
	C410.402100,173.877869 409.847076,173.395691 409.278931,173.047729 
	C401.744751,168.433395 393.864227,168.467514 386.528412,172.789566 
	C381.778687,175.587982 377.799316,179.380524 377.949890,186.254745 
	C378.098816,193.054794 381.683044,197.661819 385.194580,202.686356 
	C386.364807,204.360809 386.600708,206.688248 387.263733,208.717163 
	C384.965393,209.108261 382.670776,209.751617 380.367126,209.785934 
	C379.184387,209.803543 378.020905,208.639816 376.786713,208.174469 
	C373.865875,207.073212 370.980225,205.539963 367.951447,205.126907 
	C358.767731,203.874512 352.252625,212.739365 355.889008,221.129608 
	C356.880066,223.416229 357.932953,225.740601 358.439667,228.156250 
	C359.074432,231.182343 358.275848,233.265503 354.437531,231.855469 
	C351.946167,230.940247 349.388306,230.207687 346.874329,229.351974 
	C342.785187,227.960083 340.551941,230.523849 338.730286,233.411362 
	C336.958099,236.220398 336.774048,239.056213 339.995636,241.227524 
	C342.809052,243.123718 345.413147,245.407242 348.402832,246.952667 
	C367.162262,256.649872 386.618988,261.772766 408.136322,258.298401 
	C419.108978,256.526672 429.593903,253.753082 439.317444,248.828125 
	C445.525818,245.683624 450.951019,240.838196 456.360107,236.316101 
	C461.256622,232.222488 466.228790,227.983597 470.140137,223.002029 
	C476.152100,215.345016 480.581848,206.768372 483.748810,197.344482 
	C487.725586,185.510788 489.717377,173.445938 489.541595,161.184631 
	C489.370026,149.217957 486.000671,137.604034 481.470398,126.563393 
	C476.674500,114.875320 469.365479,104.664185 459.502899,96.679077 
	C452.978058,91.396317 445.508270,87.280426 438.984863,81.996086 
	C431.471680,75.909935 422.228333,74.303345 413.530579,72.598251 
	C403.343048,70.601097 392.565247,70.824928 382.101471,71.317322 
	C375.607117,71.622925 368.775879,73.262596 362.890472,76.007355 
	C354.240662,80.041306 346.241730,85.501610 338.073853,90.530251 
	C328.264130,96.569717 320.786194,104.864891 315.277588,114.952980 
	C313.281952,118.607658 310.910004,122.130829 309.465027,125.996330 
	C306.732086,133.307449 304.085358,140.713272 302.281677,148.288986 
	C300.908875,154.054871 302.622070,161.144745 299.887848,165.864548 
	C295.336700,173.720871 289.014069,180.925919 282.193542,187.010956 
	C269.769806,198.094925 254.477798,201.231171 238.038269,200.426086 
	C223.617966,199.719910 212.187286,192.579620 202.177200,183.492233 
	C197.539459,179.281982 194.984833,172.414734 192.481445,166.341644 
	C190.779022,162.211716 190.805115,157.369263 190.058273,152.845428 
	C190.524872,152.622147 190.991470,152.398865 191.458069,152.175583 
	C196.230759,157.579056 201.707367,160.511734 209.196396,160.515564 
	C221.588531,160.521912 232.243942,148.458801 226.087067,137.077194 
	C224.211945,133.610840 221.690430,130.498611 219.720413,127.077095 
	C218.813538,125.502022 218.522278,123.572487 217.951859,121.803673 
	C219.614655,121.525337 221.271774,121.051590 222.941238,121.003265 
	C229.392578,120.816574 234.851669,125.563774 241.826141,124.113457 
	C249.118057,122.597130 253.847198,115.443016 250.953537,108.387627 
	C250.322327,106.848602 249.364822,105.379028 249.076859,103.783737 
	C248.841400,102.479256 248.965530,100.708755 249.712479,99.761986 
	C250.255814,99.073257 252.082993,99.229492 253.323563,99.291794 
	C256.422791,99.447472 259.614624,100.337318 262.573486,99.817665 
	C264.592712,99.463020 267.493561,97.456253 267.806549,95.778816 
	C268.182129,93.766327 266.841705,90.536819 265.159393,89.211372 
	C260.749115,85.736588 255.749191,83.010170 251.029984,79.976364 
	C251.029984,79.976364 251.016830,80.017693 250.366440,79.923798 
	C248.429672,79.026169 246.559875,77.924759 244.545685,77.262627 
	C225.724777,71.075439 206.467422,69.102837 187.255661,74.264130 
	C177.968933,76.759026 168.709778,80.769623 160.622284,85.944550 
	C151.294357,91.913193 142.343216,99.093002 134.991486,107.321945 
	C129.557236,113.404587 126.691284,121.890289 123.132088,129.515869 
	C116.671913,143.356781 117.276642,158.261749 117.246620,173.026093 
	C117.241241,175.668594 116.850410,178.569321 117.766479,180.908752 
	C121.276901,189.873566 120.818459,200.022263 127.419830,208.179733 
	C134.017990,216.333191 139.267990,225.576797 145.139511,234.322021 
	C145.388428,234.692795 145.948959,234.850922 146.357529,235.118469 
	C153.537430,239.820038 160.534424,244.838913 167.959045,249.115448 
	C172.935944,251.982117 178.365082,254.326294 183.875702,255.927612 
	C189.059814,257.434082 194.731094,257.206940 199.985306,258.540985 
	C211.895218,261.564819 223.541458,260.006927 234.876724,256.528290 
	C242.406876,254.217392 249.551712,250.552307 256.702789,247.144562 
	C260.550537,245.310989 263.888245,242.407898 267.734711,240.570740 
	C277.473724,235.919174 282.592224,226.757919 288.794403,218.857193 
	C292.732819,213.840149 295.352081,207.559067 297.578644,201.484085 
	C300.409790,193.759705 303.189453,185.792618 304.236969,177.703018 
	C305.232605,170.014145 306.180054,163.032822 311.257019,156.590164 
	C320.937408,144.305771 332.009155,135.045120 347.962433,131.809341 
	C370.505707,127.236938 389.967712,131.479385 406.002747,148.978729 
M300.139832,329.035492 
	C307.622040,329.637146 314.655151,329.282593 319.649963,322.297974 
	C323.917877,316.329803 324.713623,305.476044 320.901093,301.282745 
	C313.559265,293.207611 304.685822,291.567505 294.642303,294.942841 
	C286.841644,297.564423 282.250061,305.404083 283.434875,313.787628 
	C284.752930,323.113892 290.373413,328.491943 300.139832,329.035492 
M60.313232,323.295715 
	C59.694347,324.884247 59.075466,326.472809 58.421539,328.151306 
	C63.205051,329.609619 66.151154,328.011963 68.808159,324.989441 
	C70.040695,323.587311 71.802322,321.885162 73.446236,321.744293 
	C80.020668,321.180786 87.102531,319.099304 91.721321,326.737091 
	C92.459190,327.957275 95.528030,327.767792 97.519249,328.230011 
	C97.613480,326.525085 98.298103,324.571747 97.702736,323.157013 
	C94.644302,315.889404 91.331741,308.724945 87.964165,301.592316 
	C84.245384,293.715820 82.461197,292.918793 74.169189,294.467041 
	C69.532349,304.112671 65.067245,313.401001 60.313232,323.295715 
M518.807800,327.531219 
	C524.455627,329.254303 530.046326,330.173615 533.957153,327.240417 
	C537.895874,327.775787 540.960999,329.068085 543.128357,328.176941 
	C544.556335,327.589783 545.074890,323.899078 545.324280,321.526947 
	C545.807556,316.930328 545.689270,312.273773 546.051331,307.660217 
	C546.440857,302.695526 545.144592,300.757965 540.723572,302.240936 
	C536.001770,303.824799 531.797668,303.002350 527.242188,302.350098 
	C520.276917,301.352844 515.329590,304.536377 513.156433,310.668701 
	C511.582947,315.108948 514.352478,324.454529 518.807800,327.531219 
M264.913971,302.294434 
	C262.522858,303.134033 260.131744,303.973663 257.740631,304.813293 
	C256.693970,304.965363 255.529816,303.388306 253.980057,302.755188 
	C244.117752,298.726196 234.649307,304.891876 234.074509,315.558868 
	C233.699539,322.517761 239.549149,328.779785 246.378265,328.832123 
	C252.795593,328.881317 259.210388,325.317169 265.651978,328.801025 
	C265.908691,328.939880 266.497467,328.464813 266.949524,328.267944 
	C266.949524,320.376221 266.991425,312.583862 266.884491,304.793549 
	C266.873810,304.016846 265.957275,303.252563 264.913971,302.294434 
M160.422226,306.345154 
	C159.353867,304.929016 158.148651,302.251495 157.244553,302.349548 
	C155.120483,302.579987 153.140366,304.137177 150.696045,305.360565 
	C144.082306,300.642548 138.324417,300.353302 133.507187,304.976288 
	C127.585808,310.658844 126.679314,317.526886 131.018539,323.832031 
	C135.281738,330.026825 140.955185,330.490936 152.025208,325.514069 
	C152.397324,325.768555 152.765228,326.157806 153.212280,326.302368 
	C155.265915,326.966644 157.341660,327.562561 159.409485,328.183014 
	C159.984711,326.140472 161.025742,324.101807 161.042709,322.054626 
	C161.083984,317.078888 160.649490,312.099213 160.422226,306.345154 
M371.925385,328.886475 
	C375.584167,328.860474 379.332733,329.306549 382.868591,328.634155 
	C385.041962,328.220886 386.953796,326.176483 388.826721,324.670135 
	C389.173157,324.391541 388.794617,322.507690 388.714142,322.505096 
	C386.674896,322.439697 384.446198,322.020966 382.623657,322.686066 
	C377.992859,324.376099 374.889221,321.904785 371.508972,319.350922 
	C373.215668,318.453796 374.893311,317.995453 376.589508,317.911194 
	C379.914215,317.746033 383.307556,318.133942 386.552612,317.584747 
	C387.941071,317.349762 390.296204,314.789001 390.051575,314.229126 
	C388.284119,310.184204 386.787018,304.202332 383.626343,303.007294 
	C378.772827,301.172089 372.415161,301.728394 367.145874,303.056183 
	C362.513855,304.223389 359.866730,312.604218 360.742340,318.593445 
	C361.322113,322.559052 366.583984,327.787415 371.925385,328.886475 
M194.897278,307.552032 
	C192.211227,302.644409 184.879791,300.286591 179.436401,302.430298 
	C177.658844,303.130310 175.551346,304.120544 173.870743,303.744537 
	C166.358459,302.063629 166.398102,301.902557 166.646225,309.356567 
	C166.673843,310.186035 166.606323,311.018433 166.625458,311.848511 
	C166.724701,316.154999 166.468124,320.520233 167.142166,324.736053 
	C167.385147,326.255798 169.875000,327.416260 171.339508,328.740692 
	C172.470551,327.203522 174.194901,325.804565 174.592819,324.096619 
	C175.182068,321.567444 174.635483,318.797821 174.921143,316.168457 
	C175.449814,311.302704 178.370621,308.234100 182.487625,308.469696 
	C187.082428,308.732666 188.403763,312.359955 188.880157,316.108795 
	C189.275238,319.217621 188.559387,322.514496 189.249680,325.517944 
	C189.565231,326.890869 192.120316,328.669037 193.584885,328.603088 
	C195.094757,328.535095 197.832596,326.350311 197.751617,325.261322 
	C197.326324,319.542603 196.177948,313.877686 194.897278,307.552032 
M459.065735,306.519531 
	C453.678375,300.593384 451.744598,299.840485 445.294006,302.666199 
	C442.458405,303.908386 440.469177,304.265808 437.526703,302.642212 
	C433.290802,300.304962 430.869202,302.415100 431.280701,307.324341 
	C431.697266,312.293732 432.356049,317.266968 432.368408,322.239838 
	C432.383179,328.194824 434.260559,329.781586 439.488342,328.274994 
	C440.046539,323.090210 439.957916,318.030640 441.361603,313.425934 
	C442.035614,311.214874 445.330566,309.148468 447.837769,308.450500 
	C448.946899,308.141724 451.703308,311.116699 452.536835,313.095886 
	C453.663208,315.770538 453.644836,318.924011 454.143280,321.867706 
	C454.418640,323.494049 454.258820,325.520142 455.182587,326.622345 
	C456.181488,327.814301 458.166992,328.373291 459.823303,328.708160 
	C460.354431,328.815491 461.876160,327.265381 461.808838,326.586121 
	C461.164520,320.084778 460.276550,313.607605 459.065735,306.519531 
M330.336609,326.365051 
	C335.691956,327.126953 341.051910,328.524933 346.401428,328.485901 
	C352.746765,328.439667 356.810791,323.709473 356.829895,317.804230 
	C352.806946,315.800354 350.565491,318.404053 347.929688,320.887909 
	C344.352234,324.259155 339.674194,323.703278 336.533051,320.029877 
	C334.342896,317.468719 334.687073,312.159210 337.185272,309.968903 
	C340.274780,307.260040 345.027313,307.386139 347.820343,311.091980 
	C350.759003,314.990967 353.665161,313.477875 357.642609,312.310425 
	C356.719727,310.558533 356.124847,309.081116 355.239410,307.805420 
	C349.727509,299.864014 337.795410,299.849915 331.884430,303.915039 
	C325.342102,308.414368 324.541779,317.178833 330.336609,326.365051 
M503.552582,312.946167 
	C505.546875,312.699829 507.541199,312.453491 509.535492,312.207153 
	C508.653320,310.225433 508.236786,307.780121 506.806702,306.343964 
	C501.243103,300.756775 492.530090,299.974670 485.590057,304.028168 
	C480.926422,306.752014 478.238800,313.524811 479.501526,319.371307 
	C480.756775,325.183197 484.988525,328.517365 491.401489,328.731659 
	C494.062927,328.820618 496.729645,328.812531 499.386078,328.976379 
	C504.508636,329.292419 507.379089,326.300201 509.115448,322.080353 
	C509.607452,320.884583 509.311920,318.338959 508.530304,317.891205 
	C507.425079,317.258057 505.382965,317.645447 504.010681,318.229492 
	C501.625092,319.244904 499.534241,320.946381 497.157379,321.990387 
	C494.077972,323.342987 490.119812,323.801910 488.834564,320.394257 
	C487.781708,317.602753 488.135162,313.234070 489.748291,310.826019 
	C490.965210,309.009399 495.193787,308.558380 498.015472,308.712830 
	C499.713226,308.805786 501.283691,311.224731 503.552582,312.946167 
M105.493355,328.120880 
	C107.094498,327.168060 110.059822,326.249146 110.084450,325.257202 
	C110.314880,315.977386 110.214546,306.675720 109.714500,297.407074 
	C109.644798,296.115082 106.890724,294.967957 105.379295,293.753754 
	C104.565857,295.324005 103.135864,296.859894 103.046188,298.470459 
	C102.667381,305.273895 102.437851,312.108337 102.677139,318.913025 
	C102.782333,321.904358 104.139313,324.851685 105.493355,328.120880 
M122.739487,327.915741 
	C127.074776,320.410095 124.740715,312.448486 124.053833,304.669861 
	C123.970551,303.726746 120.947861,302.101807 119.755760,302.440582 
	C118.323837,302.847565 116.496521,304.963837 116.403732,306.438354 
	C116.028069,312.408081 116.131210,318.419006 116.300568,324.407867 
	C116.407410,328.186127 118.717667,329.219147 122.739487,327.915741 
M472.901917,302.901520 
	C469.280090,301.463654 467.403473,302.995941 467.210663,306.584442 
	C466.872467,312.878937 466.623718,319.187653 466.704926,325.485687 
	C466.717773,326.480896 468.699097,328.292511 469.694641,328.241821 
	C471.307587,328.159637 474.223022,326.847046 474.222626,326.055054 
	C474.219025,318.490936 473.717438,310.927063 472.901917,302.901520 
M116.462234,295.872589 
	C116.949974,299.484619 119.602898,300.244965 122.189644,299.083527 
	C123.520866,298.485840 124.290932,295.895782 124.592163,294.085785 
	C124.726112,293.280945 123.221169,291.569397 122.206657,291.326050 
	C119.145744,290.591858 117.205505,292.149811 116.462234,295.872589 
M474.979309,295.025421 
	C472.927155,293.767853 470.874969,292.510315 468.822815,291.252747 
	C468.113129,292.824036 466.859985,294.402496 466.880615,295.964172 
	C466.894897,297.043915 468.546478,298.827698 469.680176,299.017090 
	C472.095428,299.420593 474.886658,299.360168 474.979309,295.025421 
z"/>
<path fill="#181818" opacity="1.000000" stroke="none" 
	d="
M250.984238,79.985519 
	C255.749191,83.010170 260.749115,85.736588 265.159393,89.211372 
	C266.841705,90.536819 268.182129,93.766327 267.806549,95.778816 
	C267.493561,97.456253 264.592712,99.463020 262.573486,99.817665 
	C259.614624,100.337318 256.422791,99.447472 253.323563,99.291794 
	C252.082993,99.229492 250.255814,99.073257 249.712479,99.761986 
	C248.965530,100.708755 248.841400,102.479256 249.076859,103.783737 
	C249.364822,105.379028 250.322327,106.848602 250.953537,108.387627 
	C253.847198,115.443016 249.118057,122.597130 241.826141,124.113457 
	C234.851669,125.563774 229.392578,120.816574 222.941238,121.003265 
	C221.271774,121.051590 219.614655,121.525337 217.951859,121.803680 
	C218.522278,123.572487 218.813538,125.502022 219.720413,127.077095 
	C221.690430,130.498611 224.211945,133.610840 226.087067,137.077194 
	C232.243942,148.458801 221.588531,160.521912 209.196396,160.515564 
	C201.707367,160.511734 196.230759,157.579056 191.458069,152.175583 
	C190.991470,152.398865 190.524872,152.622147 190.058273,152.845428 
	C190.805115,157.369263 190.779022,162.211716 192.481445,166.341644 
	C194.984833,172.414734 197.539459,179.281982 202.177200,183.492233 
	C212.187286,192.579620 223.617966,199.719910 238.038269,200.426086 
	C254.477798,201.231171 269.769806,198.094925 282.193542,187.010956 
	C289.014069,180.925919 295.336700,173.720871 299.887848,165.864548 
	C302.622070,161.144745 300.908875,154.054871 302.281677,148.288986 
	C304.085358,140.713272 306.732086,133.307449 309.465027,125.996330 
	C310.910004,122.130829 313.281952,118.607658 315.277588,114.952980 
	C320.786194,104.864891 328.264130,96.569717 338.073853,90.530251 
	C346.241730,85.501610 354.240662,80.041306 362.890472,76.007355 
	C368.775879,73.262596 375.607117,71.622925 382.101471,71.317322 
	C392.565247,70.824928 403.343048,70.601097 413.530579,72.598251 
	C422.228333,74.303345 431.471680,75.909935 438.984863,81.996086 
	C445.508270,87.280426 452.978058,91.396317 459.502899,96.679077 
	C469.365479,104.664185 476.674500,114.875320 481.470398,126.563393 
	C486.000671,137.604034 489.370026,149.217957 489.541595,161.184631 
	C489.717377,173.445938 487.725586,185.510788 483.748810,197.344482 
	C480.581848,206.768372 476.152100,215.345016 470.140137,223.002029 
	C466.228790,227.983597 461.256622,232.222488 456.360107,236.316101 
	C450.951019,240.838196 445.525818,245.683624 439.317444,248.828125 
	C429.593903,253.753082 419.108978,256.526672 408.136322,258.298401 
	C386.618988,261.772766 367.162262,256.649872 348.402832,246.952667 
	C345.413147,245.407242 342.809052,243.123718 339.995636,241.227524 
	C336.774048,239.056213 336.958099,236.220398 338.730286,233.411362 
	C340.551941,230.523849 342.785187,227.960083 346.874329,229.351974 
	C349.388306,230.207687 351.946167,230.940247 354.437531,231.855469 
	C358.275848,233.265503 359.074432,231.182343 358.439667,228.156250 
	C357.932953,225.740601 356.880066,223.416229 355.889008,221.129608 
	C352.252625,212.739365 358.767731,203.874512 367.951447,205.126907 
	C370.980225,205.539963 373.865875,207.073212 376.786713,208.174469 
	C378.020905,208.639816 379.184387,209.803543 380.367126,209.785934 
	C382.670776,209.751617 384.965393,209.108261 387.263733,208.717163 
	C386.600708,206.688248 386.364807,204.360809 385.194580,202.686356 
	C381.683044,197.661819 378.098816,193.054794 377.949890,186.254745 
	C377.799316,179.380524 381.778687,175.587982 386.528412,172.789566 
	C393.864227,168.467514 401.744751,168.433395 409.278931,173.047729 
	C409.847076,173.395691 410.402100,173.877869 411.022919,174.003891 
	C412.366791,174.276672 413.749359,174.358856 415.116150,174.519012 
	C415.174591,173.260437 415.650330,171.834747 415.223999,170.770355 
	C412.396759,163.711639 409.376129,156.730392 406.296875,149.375519 
	C406.175293,149.027084 405.833527,148.814697 405.833527,148.814697 
	C389.967712,131.479385 370.505707,127.236938 347.962433,131.809341 
	C332.009155,135.045120 320.937408,144.305771 311.257019,156.590164 
	C306.180054,163.032822 305.232605,170.014145 304.236969,177.703018 
	C303.189453,185.792618 300.409790,193.759705 297.578644,201.484085 
	C295.352081,207.559067 292.732819,213.840149 288.794403,218.857193 
	C282.592224,226.757919 277.473724,235.919174 267.734711,240.570740 
	C263.888245,242.407898 260.550537,245.310989 256.702789,247.144562 
	C249.551712,250.552307 242.406876,254.217392 234.876724,256.528290 
	C223.541458,260.006927 211.895218,261.564819 199.985306,258.540985 
	C194.731094,257.206940 189.059814,257.434082 183.875702,255.927612 
	C178.365082,254.326294 172.935944,251.982117 167.959045,249.115448 
	C160.534424,244.838913 153.537430,239.820038 146.357529,235.118469 
	C145.948959,234.850922 145.388428,234.692795 145.139511,234.322021 
	C139.267990,225.576797 134.017990,216.333191 127.419830,208.179733 
	C120.818459,200.022263 121.276901,189.873566 117.766479,180.908752 
	C116.850410,178.569321 117.241241,175.668594 117.246620,173.026093 
	C117.276642,158.261749 116.671913,143.356781 123.132088,129.515869 
	C126.691284,121.890289 129.557236,113.404587 134.991486,107.321945 
	C142.343216,99.093002 151.294357,91.913193 160.622284,85.944550 
	C168.709778,80.769623 177.968933,76.759026 187.255661,74.264130 
	C206.467422,69.102837 225.724777,71.075439 244.545685,77.262627 
	C246.559875,77.924759 248.429672,79.026169 250.683258,79.962784 
	C251.000092,80.001778 250.984238,79.985519 250.984238,79.985519 
M293.016052,194.899811 
	C293.016052,194.899811 292.952148,195.040588 292.716858,195.491470 
	C290.300629,198.115189 287.884399,200.738892 285.468140,203.362610 
	C284.874878,202.913605 284.281616,202.464600 283.688354,202.015594 
	C286.050507,198.078079 288.412659,194.140564 290.957031,190.016815 
	C290.957031,190.016815 291.141357,189.832657 291.421661,189.447052 
	C291.421295,188.706268 291.420929,187.965485 291.420563,187.224701 
	C290.401031,187.607117 289.218872,187.776459 288.390259,188.408997 
	C284.871368,191.095200 281.841705,194.762527 277.936371,196.541458 
	C263.483185,203.125061 248.876450,208.436127 232.257736,204.371170 
	C220.560989,201.510117 210.071686,197.796768 201.173584,188.973877 
	C191.770050,179.649780 186.428894,169.231186 186.328888,156.083466 
	C186.313721,154.091446 187.078903,151.910080 186.482895,150.156219 
	C185.857666,148.316406 183.727509,145.350983 182.776581,145.537445 
	C178.251175,146.424713 172.618759,146.992386 169.781998,149.965393 
	C165.073349,154.900177 160.030640,159.783356 157.848984,167.163910 
	C153.926193,180.434616 151.993683,193.582306 154.865662,207.180939 
	C155.577026,210.549240 156.651718,214.031204 158.406128,216.952423 
	C163.288040,225.081314 167.327789,233.341431 175.374100,239.800644 
	C189.059113,250.786423 203.612640,256.734619 220.797546,253.968521 
	C231.183914,252.296707 241.933441,250.924774 251.118927,244.654053 
	C255.511765,241.655182 260.711945,239.796341 264.949799,236.624130 
	C269.965881,232.869385 274.338196,228.254623 279.015198,224.050812 
	C279.015198,224.050812 279.016418,223.985565 279.160767,223.303650 
	C279.720612,222.317642 280.232117,221.300278 280.848083,220.350677 
	C285.023468,213.914017 289.406830,207.600098 293.268036,200.981110 
	C294.130554,199.502548 293.185211,196.969406 293.016052,194.899811 
M474.650726,124.191353 
	C472.788483,121.147301 470.926239,118.103249 469.089386,115.009964 
	C469.089386,115.009964 468.963501,114.957329 468.518951,114.508942 
	C463.926117,107.857857 458.603851,102.000160 452.176758,96.939690 
	C447.109375,92.949791 442.533722,88.476158 435.906006,86.656479 
	C435.659332,86.363029 435.412659,86.069580 435.165985,85.776146 
	C435.121124,85.902229 435.002838,86.102821 435.043121,86.142548 
	C435.348328,86.443321 435.684570,86.712593 436.123047,87.583588 
	C441.780060,96.632118 448.300293,105.276062 452.796417,114.868706 
	C455.892517,121.474373 457.270569,129.372391 457.421173,136.733612 
	C457.569824,143.999176 455.237762,151.321213 453.941711,158.609177 
	C452.229706,168.236374 448.006927,176.577591 441.074493,183.522476 
	C433.400391,191.210358 414.673920,193.308350 408.480774,179.578857 
	C408.024475,178.567276 407.221802,177.577713 406.328400,176.919739 
	C401.221863,173.158722 392.673706,174.168152 386.973480,179.101974 
	C382.368683,183.087631 381.935394,186.349548 385.379456,193.367462 
	C386.298981,195.241135 387.570038,197.007828 388.961853,198.572678 
	C394.618134,204.932175 394.478668,212.110870 388.191406,214.087082 
	C384.240387,215.328995 380.170013,215.639709 375.832916,213.063263 
	C372.636627,211.164536 367.911316,210.800980 364.064789,211.294037 
	C359.060242,211.935562 358.168518,214.506042 359.947906,219.242874 
	C360.942657,221.890854 362.119080,224.474442 363.027161,227.150314 
	C364.856628,232.541153 362.349426,236.962204 356.823547,237.468048 
	C354.864502,237.647385 352.746368,236.428375 350.744904,235.722839 
	C347.927704,234.729721 345.158295,233.681686 342.451355,236.441589 
	C350.247192,245.219131 360.809875,247.726562 370.996887,250.997528 
	C370.996887,250.997528 371.028870,250.966232 371.751923,251.222504 
	C382.358917,254.478882 393.123474,255.850555 404.226715,254.478134 
	C420.710632,252.440643 435.044403,245.364395 448.615326,236.250748 
	C458.256195,229.776352 466.191711,221.801132 471.806061,211.572922 
	C473.506073,208.475830 476.197815,205.701462 477.073730,202.416229 
	C479.468201,193.435776 483.284698,184.968872 484.363342,175.442230 
	C485.622528,164.320557 484.192841,153.611267 482.302856,142.963318 
	C481.209167,136.801712 477.639374,131.079605 475.191742,125.041748 
	C475.191742,125.041748 474.860626,124.840454 474.650726,124.191353 
M172.028976,245.023529 
	C172.028976,245.023529 171.978912,245.021851 171.799316,244.356461 
	C169.674377,241.604416 167.613083,238.800323 165.412643,236.110046 
	C158.629822,227.817215 152.226624,218.950073 150.424316,208.393600 
	C147.988663,194.127563 148.413513,179.535904 153.602173,165.774567 
	C156.900848,157.025879 161.017883,148.493835 169.796249,143.343826 
	C178.121857,138.459442 189.488678,140.432556 194.873810,148.487701 
	C199.057083,154.745117 204.166794,157.175873 211.815628,155.434174 
	C220.915268,153.362152 225.273315,144.969559 220.692902,136.974655 
	C218.498795,133.144943 216.164612,129.374664 214.275833,125.396111 
	C211.907608,120.407677 214.066757,116.259674 219.490280,116.397064 
	C224.683090,116.528603 230.007004,117.626877 234.956665,119.259964 
	C238.878799,120.554024 242.352982,120.277420 244.350525,117.265999 
	C245.826324,115.041115 245.729050,111.509987 245.621307,108.587059 
	C245.545593,106.532845 244.034149,104.574600 243.581680,102.483093 
	C242.271881,96.428825 246.750183,92.403641 252.738907,94.139542 
	C253.853912,94.462753 254.906937,95.313934 255.999359,95.334023 
	C258.116608,95.372971 260.241547,94.994385 262.363281,94.788818 
	C261.280457,92.946037 260.652771,90.290154 259.042847,89.388969 
	C246.036652,82.108582 232.133194,77.060722 217.218216,76.005913 
	C197.589432,74.617744 179.184387,79.308563 162.669907,90.054260 
	C156.176437,94.279457 149.515045,98.987099 144.732040,104.926193 
	C137.622986,113.753571 130.216019,122.785667 126.916397,134.014465 
	C124.702927,141.547012 122.196259,149.193039 121.553650,156.932175 
	C120.893173,164.886429 121.318436,173.252014 123.117760,181.008652 
	C125.404396,190.866058 128.486969,200.859268 133.216019,209.733658 
	C137.398071,217.581543 144.307480,223.976089 149.998703,231.001343 
	C149.998703,231.001343 149.988190,230.986923 150.274384,231.518707 
	C153.470047,233.987656 156.486343,236.749084 159.909042,238.847763 
	C163.753250,241.204895 167.964478,242.963440 172.028976,245.023529 
M451.244385,146.062897 
	C451.826141,143.098236 453.351624,139.946732 452.808777,137.204727 
	C451.312592,129.647354 448.665924,122.324646 446.993103,114.793877 
	C443.936249,101.032463 433.816315,92.499298 423.267426,85.517761 
	C413.970306,79.364677 403.190765,75.404510 391.044495,75.742096 
	C376.760651,76.139107 363.908417,80.097839 351.881897,87.213844 
	C347.046509,90.074913 342.673096,93.764740 338.284851,97.318649 
	C334.619995,100.286659 330.555573,103.117447 327.874084,106.870636 
	C321.966125,115.139702 316.781281,123.929016 311.418427,132.578644 
	C310.849701,133.495972 311.059265,134.895859 310.907745,136.071869 
	C311.273376,136.241730 311.639008,136.411575 312.004669,136.581436 
	C314.865387,133.257034 317.726135,129.932617 320.586884,126.608215 
	C321.028473,126.849586 321.470062,127.090950 321.911652,127.332321 
	C319.444611,132.512177 316.977600,137.692017 314.419983,143.062088 
	C315.340637,143.062088 315.539368,143.121994 315.663513,143.051193 
	C316.086334,142.810059 316.477386,142.514114 316.890228,142.254486 
	C327.706360,135.452042 337.650604,126.905144 351.433044,126.370186 
	C364.812439,125.850868 378.030853,124.599716 390.489288,131.918793 
	C399.768158,137.369904 408.730896,143.296204 413.592407,152.812912 
	C417.478485,160.420151 420.842957,168.793228 419.656586,178.033554 
	C419.394714,180.073242 420.179382,183.522324 421.576782,184.266296 
	C426.178772,186.716415 434.268158,184.476486 437.620300,180.494675 
	C438.889343,178.987244 439.533325,176.831406 441.002655,175.634644 
	C450.340149,168.029434 449.463409,156.836517 451.244385,146.062897 
z"/>
<path fill="#181818" opacity="1.000000" stroke="none" 
	d="
M299.727600,329.009369 
	C290.373413,328.491943 284.752930,323.113892 283.434875,313.787628 
	C282.250061,305.404083 286.841644,297.564423 294.642303,294.942841 
	C304.685822,291.567505 313.559265,293.207611 320.901093,301.282745 
	C324.713623,305.476044 323.917877,316.329803 319.649963,322.297974 
	C314.655151,329.282593 307.622040,329.637146 299.727600,329.009369 
M314.882385,312.319855 
	C313.702209,299.978271 305.001648,298.877350 296.339294,303.176117 
	C291.390442,305.632019 290.137726,314.437683 293.911560,317.967346 
	C300.927032,324.528961 312.729492,322.228271 314.882385,312.319855 
z"/>
<path fill="#181818" opacity="1.000000" stroke="none" 
	d="
M407.932892,291.088043 
	C414.199463,289.911804 416.748138,294.242798 419.409821,298.879242 
	C417.040497,301.274689 415.133362,300.166382 413.023804,298.473907 
	C412.016357,297.665619 410.571198,297.208527 409.273438,297.070526 
	C408.864990,297.027069 407.684113,298.904144 407.904999,299.270782 
	C408.610107,300.441315 409.646545,301.646729 410.850067,302.231384 
	C413.025116,303.287933 415.413513,303.905273 418.073975,304.831818 
	C418.572388,304.471710 419.343781,303.855713 420.171051,303.327087 
	C423.365692,301.285767 425.410431,302.349213 425.669373,305.925049 
	C426.125153,312.219757 426.362305,318.541656 426.374817,324.852753 
	C426.382050,328.502655 423.152893,330.245453 420.054596,327.972412 
	C417.332794,325.975677 415.622131,326.403076 412.999146,327.949005 
	C408.628326,330.525024 398.980438,328.777802 396.250122,325.400177 
	C392.535614,320.805084 392.282043,310.861450 396.185272,306.690155 
	C398.907898,303.780609 401.494812,301.151550 402.269501,296.909912 
	C402.588013,295.165924 405.013641,293.806763 406.929443,291.978271 
	C407.565857,291.487976 407.750793,291.289337 407.932892,291.088043 
M410.155426,308.088623 
	C404.959625,307.501038 402.507721,310.412811 401.569733,315.013245 
	C400.874603,318.422638 402.231079,320.703979 405.628021,321.904999 
	C410.066071,323.474030 414.561371,321.923157 416.429230,317.948792 
	C418.320618,313.924377 416.671539,311.012848 410.155426,308.088623 
z"/>
<path fill="#181818" opacity="1.000000" stroke="none" 
	d="
M60.457687,322.992523 
	C65.067245,313.401001 69.532349,304.112671 74.169189,294.467041 
	C82.461197,292.918793 84.245384,293.715820 87.964165,301.592316 
	C91.331741,308.724945 94.644302,315.889404 97.702736,323.157013 
	C98.298103,324.571747 97.613480,326.525085 97.519257,328.229980 
	C95.528030,327.767792 92.459190,327.957275 91.721321,326.737091 
	C87.102531,319.099304 80.020668,321.180786 73.446236,321.744293 
	C71.802322,321.885162 70.040695,323.587311 68.808159,324.989441 
	C66.151154,328.011963 63.205051,329.609619 58.421539,328.151306 
	C59.075466,326.472809 59.694347,324.884247 60.457687,322.992523 
M83.117760,313.323486 
	C82.062828,310.342499 81.041962,307.347351 79.830002,304.431641 
	C79.780876,304.313446 77.243958,304.694489 77.033134,305.270233 
	C76.081627,307.868744 75.550804,310.621307 74.868393,313.318359 
	C77.433571,313.452484 79.998756,313.586578 83.117760,313.323486 
z"/>
<path fill="#1A1A1A" opacity="1.000000" stroke="none" 
	d="
M518.449341,327.425354 
	C514.352478,324.454529 511.582947,315.108948 513.156433,310.668701 
	C515.329590,304.536377 520.276917,301.352844 527.242188,302.350098 
	C531.797668,303.002350 536.001770,303.824799 540.723572,302.240936 
	C545.144592,300.757965 546.440857,302.695526 546.051331,307.660217 
	C545.689270,312.273773 545.807556,316.930328 545.324280,321.526947 
	C545.074890,323.899078 544.556335,327.589783 543.128357,328.176941 
	C540.960999,329.068085 537.895874,327.775787 533.957153,327.240417 
	C530.046326,330.173615 524.455627,329.254303 518.449341,327.425354 
M524.951416,320.898041 
	C530.795837,322.737518 537.158569,319.986053 536.299194,315.669556 
	C535.775391,313.038818 533.636597,309.870270 531.323181,308.650940 
	C527.596069,306.686432 523.928528,309.091644 522.123047,312.393433 
	C520.619141,315.143860 520.899170,318.566559 524.951416,320.898041 
z"/>
<path fill="#181818" opacity="1.000000" stroke="none" 
	d="
M265.187561,302.388489 
	C265.957275,303.252563 266.873810,304.016846 266.884491,304.793549 
	C266.991425,312.583862 266.949524,320.376221 266.949524,328.267944 
	C266.497467,328.464813 265.908691,328.939880 265.651978,328.801025 
	C259.210388,325.317169 252.795593,328.881317 246.378265,328.832123 
	C239.549149,328.779785 233.699539,322.517761 234.074509,315.558868 
	C234.649307,304.891876 244.117752,298.726196 253.980057,302.755188 
	C255.529816,303.388306 256.693970,304.965363 257.740631,304.813293 
	C260.131744,303.973663 262.522858,303.134033 265.187561,302.388489 
M257.716431,315.148590 
	C257.213043,313.929871 256.835480,312.638611 256.182770,311.505951 
	C254.200333,308.065857 251.044708,307.559998 247.601685,308.602997 
	C244.405609,309.571136 241.942108,311.372650 242.170944,315.270111 
	C242.391739,319.030151 244.219833,321.451324 247.947433,322.298279 
	C251.709991,323.153137 256.766052,319.826752 257.716431,315.148590 
z"/>
<path fill="#181818" opacity="1.000000" stroke="none" 
	d="
M160.414444,306.733154 
	C160.649490,312.099213 161.083984,317.078888 161.042709,322.054626 
	C161.025742,324.101807 159.984711,326.140472 159.409485,328.183014 
	C157.341660,327.562561 155.265915,326.966644 153.212280,326.302368 
	C152.765228,326.157806 152.397324,325.768555 152.025208,325.514069 
	C140.955185,330.490936 135.281738,330.026825 131.018539,323.832031 
	C126.679314,317.526886 127.585808,310.658844 133.507187,304.976288 
	C138.324417,300.353302 144.082306,300.642548 150.696045,305.360565 
	C153.140366,304.137177 155.120483,302.579987 157.244553,302.349548 
	C158.148651,302.251495 159.353867,304.929016 160.414444,306.733154 
M143.215714,322.437531 
	C148.585144,322.893219 152.799011,320.116577 153.091415,315.930084 
	C153.324722,312.589813 147.973129,307.566528 143.950424,307.673340 
	C140.156128,307.774078 137.157883,309.452942 136.367828,313.484558 
	C135.405334,318.396149 138.360794,320.766479 143.215714,322.437531 
z"/>
<path fill="#181818" opacity="1.000000" stroke="none" 
	d="
M371.513245,328.886383 
	C366.583984,327.787415 361.322113,322.559052 360.742340,318.593445 
	C359.866730,312.604218 362.513855,304.223389 367.145874,303.056183 
	C372.415161,301.728394 378.772827,301.172089 383.626343,303.007294 
	C386.787018,304.202332 388.284119,310.184204 390.051575,314.229126 
	C390.296204,314.789001 387.941071,317.349762 386.552612,317.584747 
	C383.307556,318.133942 379.914215,317.746033 376.589508,317.911194 
	C374.893311,317.995453 373.215668,318.453796 371.508972,319.350922 
	C374.889221,321.904785 377.992859,324.376099 382.623657,322.686066 
	C384.446198,322.020966 386.674896,322.439697 388.714142,322.505096 
	C388.794617,322.507690 389.173157,324.391541 388.826721,324.670135 
	C386.953796,326.176483 385.041962,328.220886 382.868591,328.634155 
	C379.332733,329.306549 375.584167,328.860474 371.513245,328.886383 
M375.590271,312.983154 
	C376.409485,312.971893 377.310608,313.176361 378.030273,312.903046 
	C379.393707,312.385315 380.653015,311.593445 381.955597,310.915466 
	C380.538727,309.860168 379.045227,307.848114 377.721344,307.954132 
	C375.176910,308.157806 372.728577,309.561737 370.240387,310.467804 
	C370.392426,311.102173 370.544464,311.736542 370.696472,312.370911 
	C372.070557,312.571381 373.444611,312.771820 375.590271,312.983154 
z"/>
<path fill="#181818" opacity="1.000000" stroke="none" 
	d="
M195.088989,307.873047 
	C196.177948,313.877686 197.326324,319.542603 197.751617,325.261322 
	C197.832596,326.350311 195.094757,328.535095 193.584885,328.603088 
	C192.120316,328.669037 189.565231,326.890869 189.249680,325.517944 
	C188.559387,322.514496 189.275238,319.217621 188.880157,316.108795 
	C188.403763,312.359955 187.082428,308.732666 182.487625,308.469696 
	C178.370621,308.234100 175.449814,311.302704 174.921143,316.168457 
	C174.635483,318.797821 175.182068,321.567444 174.592819,324.096619 
	C174.194901,325.804565 172.470551,327.203522 171.339508,328.740692 
	C169.875000,327.416260 167.385147,326.255798 167.142166,324.736053 
	C166.468124,320.520233 166.724701,316.154999 166.625458,311.848511 
	C166.606323,311.018433 166.673843,310.186035 166.646225,309.356567 
	C166.398102,301.902557 166.358459,302.063629 173.870743,303.744537 
	C175.551346,304.120544 177.658844,303.130310 179.436401,302.430298 
	C184.879791,300.286591 192.211227,302.644409 195.088989,307.873047 
M173.478989,306.510223 
	C173.478989,306.510223 173.530121,306.492889 173.478989,306.510223 
z"/>
<path fill="#181818" opacity="1.000000" stroke="none" 
	d="
M459.262085,306.821533 
	C460.276550,313.607605 461.164520,320.084778 461.808838,326.586121 
	C461.876160,327.265381 460.354431,328.815491 459.823303,328.708160 
	C458.166992,328.373291 456.181488,327.814301 455.182587,326.622345 
	C454.258820,325.520142 454.418640,323.494049 454.143280,321.867706 
	C453.644836,318.924011 453.663208,315.770538 452.536835,313.095886 
	C451.703308,311.116699 448.946899,308.141724 447.837769,308.450500 
	C445.330566,309.148468 442.035614,311.214874 441.361603,313.425934 
	C439.957916,318.030640 440.046539,323.090210 439.488342,328.274994 
	C434.260559,329.781586 432.383179,328.194824 432.368408,322.239838 
	C432.356049,317.266968 431.697266,312.293732 431.280701,307.324341 
	C430.869202,302.415100 433.290802,300.304962 437.526703,302.642212 
	C440.469177,304.265808 442.458405,303.908386 445.294006,302.666199 
	C451.744598,299.840485 453.678375,300.593384 459.262085,306.821533 
z"/>
<path fill="#181818" opacity="1.000000" stroke="none" 
	d="
M330.071411,326.087219 
	C324.541779,317.178833 325.342102,308.414368 331.884430,303.915039 
	C337.795410,299.849915 349.727509,299.864014 355.239410,307.805420 
	C356.124847,309.081116 356.719727,310.558533 357.642609,312.310425 
	C353.665161,313.477875 350.759003,314.990967 347.820343,311.091980 
	C345.027313,307.386139 340.274780,307.260040 337.185272,309.968903 
	C334.687073,312.159210 334.342896,317.468719 336.533051,320.029877 
	C339.674194,323.703278 344.352234,324.259155 347.929688,320.887909 
	C350.565491,318.404053 352.806946,315.800354 356.829895,317.804230 
	C356.810791,323.709473 352.746765,328.439667 346.401428,328.485901 
	C341.051910,328.524933 335.691956,327.126953 330.071411,326.087219 
z"/>
<path fill="#181818" opacity="1.000000" stroke="none" 
	d="
M503.231964,312.772278 
	C501.283691,311.224731 499.713226,308.805786 498.015472,308.712830 
	C495.193787,308.558380 490.965210,309.009399 489.748291,310.826019 
	C488.135162,313.234070 487.781708,317.602753 488.834564,320.394257 
	C490.119812,323.801910 494.077972,323.342987 497.157379,321.990387 
	C499.534241,320.946381 501.625092,319.244904 504.010681,318.229492 
	C505.382965,317.645447 507.425079,317.258057 508.530304,317.891205 
	C509.311920,318.338959 509.607452,320.884583 509.115448,322.080353 
	C507.379089,326.300201 504.508636,329.292419 499.386078,328.976379 
	C496.729645,328.812531 494.062927,328.820618 491.401489,328.731659 
	C484.988525,328.517365 480.756775,325.183197 479.501526,319.371307 
	C478.238800,313.524811 480.926422,306.752014 485.590057,304.028168 
	C492.530090,299.974670 501.243103,300.756775 506.806702,306.343964 
	C508.236786,307.780121 508.653320,310.225433 509.535492,312.207153 
	C507.541199,312.453491 505.546875,312.699829 503.231964,312.772278 
z"/>
<path fill="#181818" opacity="1.000000" stroke="none" 
	d="
M213.367950,328.896606 
	C202.236557,327.597565 196.646133,316.872101 202.261826,307.027649 
	C203.273560,305.254028 205.877243,304.273224 207.895798,303.211121 
	C213.700165,300.156952 223.427948,301.211456 227.505585,305.694092 
	C228.789536,307.105530 228.796234,309.678833 229.387512,311.720367 
	C227.436035,311.520966 225.404449,311.596405 223.552277,311.056427 
	C220.913177,310.286987 218.430984,308.354065 215.834045,308.261841 
	C213.730423,308.187134 210.207611,309.670624 209.721237,311.219055 
	C208.938843,313.709869 209.481812,317.152649 210.692383,319.581329 
	C211.874237,321.952454 214.408768,323.986328 217.787216,322.169159 
	C219.917892,321.023163 222.376831,320.349091 224.250687,318.897949 
	C226.749161,316.963104 228.871658,316.681244 232.318787,319.440613 
	C229.522018,322.032959 226.987946,324.381836 223.853149,327.011383 
	C219.957596,327.826904 216.662781,328.361755 213.367950,328.896606 
z"/>
<path fill="#181818" opacity="1.000000" stroke="none" 
	d="
M105.210648,327.969910 
	C104.139313,324.851685 102.782333,321.904358 102.677139,318.913025 
	C102.437851,312.108337 102.667381,305.273895 103.046188,298.470459 
	C103.135864,296.859894 104.565857,295.324005 105.379288,293.753754 
	C106.890724,294.967957 109.644798,296.115082 109.714500,297.407074 
	C110.214546,306.675720 110.314880,315.977386 110.084450,325.257202 
	C110.059822,326.249146 107.094498,327.168060 105.210648,327.969910 
z"/>
<path fill="#181818" opacity="1.000000" stroke="none" 
	d="
M122.444244,328.073914 
	C118.717667,329.219147 116.407410,328.186127 116.300568,324.407867 
	C116.131210,318.419006 116.028069,312.408081 116.403732,306.438354 
	C116.496521,304.963837 118.323837,302.847565 119.755760,302.440582 
	C120.947861,302.101807 123.970551,303.726746 124.053833,304.669861 
	C124.740715,312.448486 127.074776,320.410095 122.444244,328.073914 
z"/>
<path fill="#181818" opacity="1.000000" stroke="none" 
	d="
M473.130371,303.132324 
	C473.717438,310.927063 474.219025,318.490936 474.222626,326.055054 
	C474.223022,326.847046 471.307587,328.159637 469.694641,328.241821 
	C468.699097,328.292511 466.717773,326.480896 466.704926,325.485687 
	C466.623718,319.187653 466.872467,312.878937 467.210663,306.584442 
	C467.403473,302.995941 469.280090,301.463654 473.130371,303.132324 
z"/>
<path fill="#181818" opacity="1.000000" stroke="none" 
	d="
M213.232986,329.219666 
	C216.662781,328.361755 219.957596,327.826904 223.529648,327.170044 
	C223.793259,328.703522 223.520737,330.407623 223.820251,332.004456 
	C224.432892,335.270813 223.532272,338.193298 220.390121,338.775970 
	C217.188507,339.369720 213.709259,338.566681 210.393723,338.084961 
	C210.258987,338.065338 210.555557,335.076935 210.841324,333.289062 
	C211.031464,333.106445 211.172958,333.232330 211.172958,333.232330 
	C211.172958,333.232330 210.989914,333.004791 210.989899,333.004791 
	C211.692612,331.850769 212.395325,330.696716 213.232986,329.219666 
M219.049606,335.100067 
	C219.049606,335.100067 219.016312,334.863159 219.016312,334.863159 
	C219.016312,334.863159 218.951965,335.092560 219.049606,335.100067 
z"/>
<path fill="#181818" opacity="1.000000" stroke="none" 
	d="
M116.490601,295.547791 
	C117.205505,292.149811 119.145744,290.591858 122.206657,291.326050 
	C123.221169,291.569397 124.726112,293.280945 124.592163,294.085785 
	C124.290932,295.895782 123.520866,298.485840 122.189644,299.083527 
	C119.602898,300.244965 116.949974,299.484619 116.490601,295.547791 
z"/>
<path fill="#1A1A1A" opacity="1.000000" stroke="none" 
	d="
M475.031036,295.355255 
	C474.886658,299.360168 472.095428,299.420593 469.680176,299.017090 
	C468.546478,298.827698 466.894897,297.043915 466.880615,295.964172 
	C466.859985,294.402496 468.113129,292.824036 468.822815,291.252747 
	C470.874969,292.510315 472.927155,293.767853 475.031036,295.355255 
z"/>
<path fill="#181818" opacity="1.000000" stroke="none" 
	d="
M251.008453,80.009735 
	C251.016830,80.017693 251.029984,79.976364 251.007111,79.980942 
	C250.984238,79.985519 251.000092,80.001778 251.008453,80.009735 
z"/>
<path fill="#181818" opacity="1.000000" stroke="none" 
	d="
M407.779724,291.222656 
	C407.750793,291.289337 407.565857,291.487976 407.237946,291.830444 
	C407.254883,291.753967 407.431152,291.547424 407.779724,291.222656 
z"/>
<path fill="#000000" opacity="1.000000" stroke="none" 
	d="
M150.012741,231.012283 
	C144.307480,223.976089 137.398071,217.581543 133.216019,209.733658 
	C128.486969,200.859268 125.404396,190.866058 123.117760,181.008652 
	C121.318436,173.252014 120.893173,164.886429 121.553650,156.932175 
	C122.196259,149.193039 124.702927,141.547012 126.916397,134.014465 
	C130.216019,122.785667 137.622986,113.753571 144.732040,104.926193 
	C149.515045,98.987099 156.176437,94.279457 162.669907,90.054260 
	C179.184387,79.308563 197.589432,74.617744 217.218216,76.005913 
	C232.133194,77.060722 246.036652,82.108582 259.042847,89.388969 
	C260.652771,90.290154 261.280457,92.946037 262.363281,94.788818 
	C260.241547,94.994385 258.116608,95.372971 255.999359,95.334023 
	C254.906937,95.313934 253.853912,94.462753 252.738907,94.139542 
	C246.750183,92.403641 242.271881,96.428825 243.581680,102.483093 
	C244.034149,104.574600 245.545593,106.532845 245.621307,108.587059 
	C245.729050,111.509987 245.826324,115.041115 244.350525,117.265999 
	C242.352982,120.277420 238.878799,120.554024 234.956665,119.259964 
	C230.007004,117.626877 224.683090,116.528603 219.490280,116.397064 
	C214.066757,116.259674 211.907608,120.407677 214.275833,125.396111 
	C216.164612,129.374664 218.498795,133.144943 220.692902,136.974655 
	C225.273315,144.969559 220.915268,153.362152 211.815628,155.434174 
	C204.166794,157.175873 199.057083,154.745117 194.873810,148.487701 
	C189.488678,140.432556 178.121857,138.459442 169.796249,143.343826 
	C161.017883,148.493835 156.900848,157.025879 153.602173,165.774567 
	C148.413513,179.535904 147.988663,194.127563 150.424316,208.393600 
	C152.226624,218.950073 158.629822,227.817215 165.412643,236.110046 
	C167.613083,238.800323 169.674377,241.604416 171.897919,244.678741 
	C171.996521,245.001022 172.016037,244.982391 172.016037,244.982391 
	C167.964478,242.963440 163.753250,241.204895 159.909042,238.847763 
	C156.486343,236.749084 153.470047,233.987656 150.143234,231.238800 
	C150.012085,230.958908 150.012741,231.012283 150.012741,231.012283 
z"/>
<path fill="#000000" opacity="1.000000" stroke="none" 
	d="
M469.063995,115.059189 
	C470.926239,118.103249 472.788483,121.147301 474.837097,124.595108 
	C475.023499,124.998856 475.183929,125.159714 475.183929,125.159714 
	C477.639374,131.079605 481.209167,136.801712 482.302856,142.963318 
	C484.192841,153.611267 485.622528,164.320557 484.363342,175.442230 
	C483.284698,184.968872 479.468201,193.435776 477.073730,202.416229 
	C476.197815,205.701462 473.506073,208.475830 471.806061,211.572922 
	C466.191711,221.801132 458.256195,229.776352 448.615326,236.250748 
	C435.044403,245.364395 420.710632,252.440643 404.226715,254.478134 
	C393.123474,255.850555 382.358917,254.478882 371.372681,251.077103 
	C370.993439,250.931702 370.965454,251.029373 370.965454,251.029373 
	C360.809875,247.726562 350.247192,245.219131 342.451355,236.441589 
	C345.158295,233.681686 347.927704,234.729721 350.744904,235.722839 
	C352.746368,236.428375 354.864502,237.647385 356.823547,237.468048 
	C362.349426,236.962204 364.856628,232.541153 363.027161,227.150314 
	C362.119080,224.474442 360.942657,221.890854 359.947906,219.242874 
	C358.168518,214.506042 359.060242,211.935562 364.064789,211.294037 
	C367.911316,210.800980 372.636627,211.164536 375.832916,213.063263 
	C380.170013,215.639709 384.240387,215.328995 388.191406,214.087082 
	C394.478668,212.110870 394.618134,204.932175 388.961853,198.572678 
	C387.570038,197.007828 386.298981,195.241135 385.379456,193.367462 
	C381.935394,186.349548 382.368683,183.087631 386.973480,179.101974 
	C392.673706,174.168152 401.221863,173.158722 406.328400,176.919739 
	C407.221802,177.577713 408.024475,178.567276 408.480774,179.578857 
	C414.673920,193.308350 433.400391,191.210358 441.074493,183.522476 
	C448.006927,176.577591 452.229706,168.236374 453.941711,158.609177 
	C455.237762,151.321213 457.569824,143.999176 457.421173,136.733612 
	C457.270569,129.372391 455.892517,121.474373 452.796417,114.868706 
	C448.300293,105.276062 441.780060,96.632118 436.061890,87.291534 
	C436.000702,86.999489 435.993805,87.007011 435.993805,87.007011 
	C442.533722,88.476158 447.109375,92.949791 452.176758,96.939690 
	C458.603851,102.000160 463.926117,107.857857 468.766693,114.758255 
	C469.014435,115.007561 469.063995,115.059196 469.063995,115.059189 
z"/>
<path fill="#010101" opacity="1.000000" stroke="none" 
	d="
M451.361237,146.358032 
	C449.463409,156.836517 450.340149,168.029434 441.002655,175.634644 
	C439.533325,176.831406 438.889343,178.987244 437.620300,180.494675 
	C434.268158,184.476486 426.178772,186.716415 421.576782,184.266296 
	C420.179382,183.522324 419.394714,180.073242 419.656586,178.033554 
	C420.842957,168.793228 417.478485,160.420151 413.592407,152.812912 
	C408.730896,143.296204 399.768158,137.369904 390.489288,131.918793 
	C378.030853,124.599716 364.812439,125.850868 351.433044,126.370186 
	C337.650604,126.905144 327.706360,135.452042 316.890228,142.254486 
	C316.477386,142.514114 316.086334,142.810059 315.663513,143.051193 
	C315.539368,143.121994 315.340637,143.062088 314.419983,143.062088 
	C316.977600,137.692017 319.444611,132.512177 321.911652,127.332321 
	C321.470062,127.090950 321.028473,126.849586 320.586884,126.608215 
	C317.726135,129.932617 314.865387,133.257034 312.004669,136.581436 
	C311.639008,136.411575 311.273376,136.241730 310.907745,136.071869 
	C311.059265,134.895859 310.849701,133.495972 311.418427,132.578644 
	C316.781281,123.929016 321.966125,115.139702 327.874084,106.870636 
	C330.555573,103.117447 334.619995,100.286659 338.284851,97.318649 
	C342.673096,93.764740 347.046509,90.074913 351.881897,87.213844 
	C363.908417,80.097839 376.760651,76.139107 391.044495,75.742096 
	C403.190765,75.404510 413.970306,79.364677 423.267426,85.517761 
	C433.816315,92.499298 443.936249,101.032463 446.993103,114.793877 
	C448.665924,122.324646 451.312592,129.647354 452.808777,137.204727 
	C453.351624,139.946732 451.826141,143.098236 451.361237,146.358032 
M371.020203,94.786934 
	C368.892059,95.149513 366.770905,95.561386 364.634552,95.866249 
	C354.580261,97.301064 345.726379,101.468750 337.932098,107.854584 
	C336.942871,108.665054 336.829468,110.544533 336.310303,111.928741 
	C337.936188,111.628845 339.735138,111.660309 341.135498,110.928726 
	C342.350250,110.294106 342.902527,108.208649 344.110748,107.774101 
	C351.545319,105.100136 358.975769,102.287544 366.619171,100.360344 
	C373.083710,98.730385 379.834656,98.236183 386.458832,97.239326 
	C386.438507,96.658371 386.418213,96.077408 386.397888,95.496452 
	C381.539948,95.225998 376.682037,94.955544 371.020203,94.786934 
M369.448883,114.022377 
	C377.664703,114.744751 385.880524,115.467125 394.466431,116.222046 
	C388.761597,109.370834 365.035889,107.613884 361.318207,113.377739 
	C363.769287,113.590698 366.220337,113.803665 369.448883,114.022377 
M326.528992,123.000244 
	C326.528992,123.000244 326.477844,123.015320 326.528992,123.000244 
M324.486816,124.473572 
	C324.486816,124.473572 324.498932,124.518288 324.486816,124.473572 
z"/>
<path fill="#010101" opacity="1.000000" stroke="none" 
	d="
M278.989563,224.012634 
	C274.338196,228.254623 269.965881,232.869385 264.949799,236.624130 
	C260.711945,239.796341 255.511765,241.655182 251.118927,244.654053 
	C241.933441,250.924774 231.183914,252.296707 220.797546,253.968521 
	C203.612640,256.734619 189.059113,250.786423 175.374100,239.800644 
	C167.327789,233.341431 163.288040,225.081314 158.406128,216.952423 
	C156.651718,214.031204 155.577026,210.549240 154.865662,207.180939 
	C151.993683,193.582306 153.926193,180.434616 157.848984,167.163910 
	C160.030640,159.783356 165.073349,154.900177 169.781998,149.965393 
	C172.618759,146.992386 178.251175,146.424713 182.776581,145.537445 
	C183.727509,145.350983 185.857666,148.316406 186.482895,150.156219 
	C187.078903,151.910080 186.313721,154.091446 186.328888,156.083466 
	C186.428894,169.231186 191.770050,179.649780 201.173584,188.973877 
	C210.071686,197.796768 220.560989,201.510117 232.257736,204.371170 
	C248.876450,208.436127 263.483185,203.125061 277.936371,196.541458 
	C281.841705,194.762527 284.871368,191.095200 288.390259,188.408997 
	C289.218872,187.776459 290.401031,187.607117 291.420563,187.224701 
	C291.420929,187.965485 291.421295,188.706268 291.212952,189.626709 
	C291.004242,189.806351 290.769073,189.929642 290.769073,189.929642 
	C290.769073,189.929642 290.774780,190.203049 290.774780,190.203049 
	C288.412659,194.140564 286.050507,198.078079 283.688354,202.015594 
	C284.281616,202.464600 284.874878,202.913605 285.468140,203.362610 
	C287.884399,200.738892 290.300629,198.115189 292.864105,195.235916 
	C293.011353,194.980362 293.072205,194.921783 293.072205,194.921783 
	C293.185211,196.969406 294.130554,199.502548 293.268036,200.981110 
	C289.406830,207.600098 285.023468,213.914017 280.848083,220.350677 
	C280.232117,221.300278 279.720612,222.317642 279.081299,223.651428 
	C279.001801,223.999222 278.989563,224.012634 278.989563,224.012634 
M221.998993,220.002075 
	C221.998993,220.002075 221.982361,219.983063 222.497910,220.358612 
	C230.133560,220.118332 238.103409,223.473038 245.322922,217.810852 
	C233.497101,216.495041 221.671265,215.179230 208.522049,213.716171 
	C212.614899,219.136780 217.632965,218.869476 221.998993,220.002075 
M268.353424,220.065994 
	C266.042969,220.861206 263.708160,221.592575 261.426331,222.462891 
	C252.555389,225.846390 244.503296,231.400253 234.311844,231.207336 
	C230.043060,231.126526 225.735809,233.077438 221.446045,234.104645 
	C222.142227,235.440536 222.732727,235.969727 223.250641,235.906265 
	C231.711502,234.869705 240.515961,237.315231 248.690643,233.345200 
	C256.041779,229.775131 264.334076,227.656342 269.420288,219.844116 
	C269.855133,219.471893 270.289978,219.099655 270.724823,218.727432 
	C270.544067,218.575333 270.363281,218.423233 270.182526,218.271133 
	C269.794983,218.856689 269.407440,219.442245 268.353424,220.065994 
z"/>
<path fill="#000000" opacity="1.000000" stroke="none" 
	d="
M436.005920,86.995583 
	C435.684570,86.712593 435.348328,86.443321 435.043121,86.142548 
	C435.002838,86.102821 435.121124,85.902229 435.165985,85.776138 
	C435.412659,86.069580 435.659332,86.363029 435.949890,86.831741 
	C435.993805,87.007011 436.000702,86.999489 436.005920,86.995583 
z"/>
<path fill="#000000" opacity="1.000000" stroke="none" 
	d="
M468.988953,114.982445 
	C468.963501,114.957329 469.089386,115.009964 469.076691,115.034576 
	C469.063995,115.059196 469.014435,115.007561 468.988953,114.982445 
z"/>
<path fill="#000000" opacity="1.000000" stroke="none" 
	d="
M474.942078,124.919655 
	C474.860626,124.840454 475.191742,125.041748 475.187836,125.100731 
	C475.183929,125.159714 475.023499,124.998856 474.942078,124.919655 
z"/>
<path fill="#000000" opacity="1.000000" stroke="none" 
	d="
M405.918152,148.896713 
	C405.833527,148.814697 406.175293,149.027084 406.172241,149.086304 
	C406.169220,149.145538 406.002747,148.978729 405.918152,148.896713 
z"/>
<path fill="#010101" opacity="1.000000" stroke="none" 
	d="
M292.981750,195.010468 
	C292.952148,195.040588 293.016052,194.899811 293.044128,194.910797 
	C293.072205,194.921783 293.011353,194.980362 292.981750,195.010468 
z"/>
<path fill="#010101" opacity="1.000000" stroke="none" 
	d="
M279.009094,223.992401 
	C279.016418,223.985565 279.015198,224.050812 279.002380,224.031723 
	C278.989563,224.012634 279.001801,223.999222 279.009094,223.992401 
z"/>
<path fill="#000000" opacity="1.000000" stroke="none" 
	d="
M171.987717,245.011444 
	C171.978912,245.021851 172.028976,245.023529 172.022507,245.002960 
	C172.016037,244.982391 171.996521,245.001022 171.987717,245.011444 
z"/>
<path fill="#010101" opacity="1.000000" stroke="none" 
	d="
M314.852295,312.714142 
	C312.729492,322.228271 300.927032,324.528961 293.911560,317.967346 
	C290.137726,314.437683 291.390442,305.632019 296.339294,303.176117 
	C305.001648,298.877350 313.702209,299.978271 314.852295,312.714142 
z"/>
<path fill="#010101" opacity="1.000000" stroke="none" 
	d="
M410.539429,308.158173 
	C416.671539,311.012848 418.320618,313.924377 416.429230,317.948792 
	C414.561371,321.923157 410.066071,323.474030 405.628021,321.904999 
	C402.231079,320.703979 400.874603,318.422638 401.569733,315.013245 
	C402.507721,310.412811 404.959625,307.501038 410.539429,308.158173 
z"/>
<path fill="#010101" opacity="1.000000" stroke="none" 
	d="
M82.840851,313.522095 
	C79.998756,313.586578 77.433571,313.452484 74.868393,313.318359 
	C75.550804,310.621307 76.081627,307.868744 77.033134,305.270233 
	C77.243958,304.694489 79.780876,304.313446 79.830002,304.431641 
	C81.041962,307.347351 82.062828,310.342499 82.840851,313.522095 
z"/>
<path fill="#010101" opacity="1.000000" stroke="none" 
	d="
M524.620972,320.746643 
	C520.899170,318.566559 520.619141,315.143860 522.123047,312.393433 
	C523.928528,309.091644 527.596069,306.686432 531.323181,308.650940 
	C533.636597,309.870270 535.775391,313.038818 536.299194,315.669556 
	C537.158569,319.986053 530.795837,322.737518 524.620972,320.746643 
z"/>
<path fill="#010101" opacity="1.000000" stroke="none" 
	d="
M257.798157,315.471802 
	C256.766052,319.826752 251.709991,323.153137 247.947433,322.298279 
	C244.219833,321.451324 242.391739,319.030151 242.170944,315.270111 
	C241.942108,311.372650 244.405609,309.571136 247.601685,308.602997 
	C251.044708,307.559998 254.200333,308.065857 256.182770,311.505951 
	C256.835480,312.638611 257.213043,313.929871 257.798157,315.471802 
z"/>
<path fill="#010101" opacity="1.000000" stroke="none" 
	d="
M142.865417,322.308838 
	C138.360794,320.766479 135.405334,318.396149 136.367828,313.484558 
	C137.157883,309.452942 140.156128,307.774078 143.950424,307.673340 
	C147.973129,307.566528 153.324722,312.589813 153.091415,315.930084 
	C152.799011,320.116577 148.585144,322.893219 142.865417,322.308838 
z"/>
<path fill="#010101" opacity="1.000000" stroke="none" 
	d="
M375.204468,312.977722 
	C373.444611,312.771820 372.070557,312.571381 370.696472,312.370911 
	C370.544464,311.736542 370.392426,311.102173 370.240387,310.467804 
	C372.728577,309.561737 375.176910,308.157806 377.721344,307.954132 
	C379.045227,307.848114 380.538727,309.860168 381.955597,310.915466 
	C380.653015,311.593445 379.393707,312.385315 378.030273,312.903046 
	C377.310608,313.176361 376.409485,312.971893 375.204468,312.977722 
z"/>
<path fill="#000000" opacity="1.000000" stroke="none" 
	d="
M173.504547,306.501556 
	C173.530121,306.492889 173.478989,306.510223 173.504547,306.501556 
z"/>
<path fill="#000000" opacity="1.000000" stroke="none" 
	d="
M219.000793,335.096313 
	C218.951965,335.092560 219.016312,334.863159 219.016312,334.863159 
	C219.016312,334.863159 219.049606,335.100067 219.000793,335.096313 
z"/>
<path fill="#000000" opacity="1.000000" stroke="none" 
	d="
M210.995453,333.001617 
	C210.989914,333.004791 211.172958,333.232330 211.172958,333.232330 
	C211.172958,333.232330 211.031464,333.106445 211.021362,333.046631 
	C211.011246,332.986786 211.001007,332.998444 210.995453,333.001617 
z"/>
<path fill="#181818" opacity="1.000000" stroke="none" 
	d="
M150.005722,231.006805 
	C150.012741,231.012283 150.012085,230.958908 150.000137,230.972916 
	C149.988190,230.986923 149.998703,231.001343 150.005722,231.006805 
z"/>
<path fill="#181818" opacity="1.000000" stroke="none" 
	d="
M370.981171,251.013458 
	C370.965454,251.029373 370.993439,250.931702 371.011169,250.948975 
	C371.028870,250.966232 370.996887,250.997528 370.981171,251.013458 
z"/>
<path fill="#181818" opacity="1.000000" stroke="none" 
	d="
M371.422150,94.736008 
	C376.682037,94.955544 381.539948,95.225998 386.397888,95.496452 
	C386.418213,96.077408 386.438507,96.658371 386.458832,97.239326 
	C379.834656,98.236183 373.083710,98.730385 366.619171,100.360344 
	C358.975769,102.287544 351.545319,105.100136 344.110748,107.774101 
	C342.902527,108.208649 342.350250,110.294106 341.135498,110.928726 
	C339.735138,111.660309 337.936188,111.628845 336.310303,111.928741 
	C336.829468,110.544533 336.942871,108.665054 337.932098,107.854584 
	C345.726379,101.468750 354.580261,97.301064 364.634552,95.866249 
	C366.770905,95.561386 368.892059,95.149513 371.422150,94.736008 
z"/>
<path fill="#181818" opacity="1.000000" stroke="none" 
	d="
M369.060150,114.019501 
	C366.220337,113.803665 363.769287,113.590698 361.318359,113.376160 
	C365.035889,107.613884 388.761597,109.370834 394.466431,116.222046 
	C385.880524,115.467125 377.664703,114.744751 369.060150,114.019501 
z"/>
<path fill="#181818" opacity="1.000000" stroke="none" 
	d="
M326.503418,123.007782 
	C326.477844,123.015320 326.528992,123.000244 326.503418,123.007782 
z"/>
<path fill="#181818" opacity="1.000000" stroke="none" 
	d="
M324.492859,124.495926 
	C324.498932,124.518288 324.486816,124.473572 324.492859,124.495926 
z"/>
<path fill="#181818" opacity="1.000000" stroke="none" 
	d="
M268.973572,219.979416 
	C264.334076,227.656342 256.041779,229.775131 248.690643,233.345200 
	C240.515961,237.315231 231.711502,234.869705 223.250641,235.906265 
	C222.732727,235.969727 222.142227,235.440536 221.446045,234.104645 
	C225.735809,233.077438 230.043060,231.126526 234.311844,231.207336 
	C244.503296,231.400253 252.555389,225.846390 261.426331,222.462891 
	C263.708160,221.592575 266.042969,220.861206 268.675659,220.034241 
	C268.997925,220.002502 268.973572,219.979416 268.973572,219.979416 
z"/>
<path fill="#181818" opacity="1.000000" stroke="none" 
	d="
M222.018417,220.017471 
	C217.632965,218.869476 212.614899,219.136780 208.522049,213.716171 
	C221.671265,215.179230 233.497101,216.495041 245.322922,217.810852 
	C238.103409,223.473038 230.133560,220.118332 222.257919,220.162079 
	C222.017929,219.965546 222.018417,220.017471 222.018417,220.017471 
z"/>
<path fill="#181818" opacity="1.000000" stroke="none" 
	d="
M269.008911,220.015152 
	C269.407440,219.442245 269.794983,218.856689 270.182526,218.271133 
	C270.363281,218.423233 270.544067,218.575333 270.724823,218.727432 
	C270.289978,219.099655 269.855133,219.471893 269.196930,219.911774 
	C268.973572,219.979416 268.997925,220.002502 269.008911,220.015152 
z"/>
<path fill="#181818" opacity="1.000000" stroke="none" 
	d="
M290.865906,190.109924 
	C290.774780,190.203049 290.769073,189.929642 290.769073,189.929642 
	C290.769073,189.929642 291.004242,189.806351 291.072815,189.819504 
	C291.141357,189.832657 290.957031,190.016815 290.865906,190.109924 
z"/>
<path fill="#010101" opacity="1.000000" stroke="none" 
	d="
M222.008698,220.009766 
	C222.018417,220.017471 222.017929,219.965546 222.000153,219.974304 
	C221.982361,219.983063 221.998993,220.002075 222.008698,220.009766 
z"/>
</svg>