<?xml version="1.0" standalone="no"?>
<!DOCTYPE svg PUBLIC "-//W3C//DTD SVG 20010904//EN"
 "http://www.w3.org/TR/2001/REC-SVG-20010904/DTD/svg10.dtd">
<svg version="1.0" xmlns="http://www.w3.org/2000/svg"
 width="1563.000000pt" height="1563.000000pt" viewBox="0 0 1563.000000 1563.000000"
 preserveAspectRatio="xMidYMid meet">

<g transform="translate(0.000000,1563.000000) scale(0.100000,-0.100000)"
fill="#000000" stroke="none">
<path d="M7400 15114 c-467 -36 -917 -101 -1305 -190 -363 -83 -883 -253
-1205 -392 -201 -87 -231 -101 -442 -208 -554 -278 -1070 -621 -1526 -1013
-193 -166 -519 -476 -527 -501 -3 -11 -12 -20 -18 -21 -14 -1 -288 -307 -415
-464 -377 -466 -681 -943 -929 -1454 -311 -641 -503 -1229 -637 -1948 -56
-297 -86 -549 -117 -981 -26 -360 6 -1050 66 -1432 50 -315 156 -766 246
-1045 269 -834 673 -1575 1285 -2361 234 -300 533 -639 549 -622 7 7 -14 34
-215 273 -657 782 -1189 1759 -1474 2708 -110 364 -143 511 -211 932 -77 479
-88 645 -82 1250 4 450 6 508 30 710 85 709 215 1242 455 1875 101 266 299
684 447 945 270 476 625 971 959 1340 673 739 1503 1352 2396 1766 855 396
1702 609 2660 670 277 17 919 6 1178 -20 613 -64 1181 -188 1707 -373 635
-224 1182 -502 1765 -896 740 -500 1439 -1207 1935 -1957 313 -473 605 -1044
780 -1525 269 -742 409 -1411 456 -2186 15 -241 6 -833 -15 -1044 -36 -350
-86 -667 -161 -1006 -202 -914 -620 -1826 -1226 -2675 -36 -51 -43 -65 -28
-62 43 12 391 530 609 908 481 834 809 1818 915 2745 64 557 61 1118 -11 1705
-42 347 -136 809 -230 1130 -216 735 -497 1381 -836 1925 -162 259 -403 583
-668 896 -172 205 -600 622 -885 865 -631 538 -1466 1012 -2315 1316 -282 101
-657 204 -974 268 -676 137 -1417 193 -1986 149z"/>
<path d="M9380 13253 c-200 -33 -294 -60 -420 -122 -188 -93 -318 -198 -452
-364 -68 -84 -83 -97 -101 -91 -12 4 -195 7 -407 7 -411 0 -502 -6 -810 -59
-366 -63 -740 -189 -1040 -351 -388 -210 -689 -481 -961 -864 -39 -55 -81
-104 -92 -109 -27 -11 -709 -122 -1202 -195 -462 -69 -1260 -157 -1585 -176
-107 -7 -196 -13 -198 -14 -11 -9 141 -264 219 -366 143 -189 371 -346 585
-405 33 -9 114 -18 182 -21 122 -6 122 -6 128 -32 20 -99 99 -237 186 -327
l50 -51 -74 -31 c-293 -120 -976 -326 -1372 -413 -99 -21 -181 -41 -184 -44
-12 -12 106 -253 173 -355 60 -91 210 -245 285 -292 120 -76 260 -103 502 -96
l175 5 32 -38 c62 -75 196 -163 311 -205 68 -24 213 -51 325 -59 l100 -8 65
-59 c125 -115 230 -148 466 -148 l145 0 62 -50 c82 -67 174 -112 275 -135 65
-15 83 -23 88 -39 15 -48 116 -258 162 -338 115 -200 221 -337 391 -511 l135
-137 -3 -93 c-2 -74 3 -107 23 -172 60 -197 129 -297 284 -417 l44 -33 2 -145
c2 -128 5 -155 30 -230 70 -213 214 -379 415 -480 78 -39 236 -80 309 -80 l54
0 -22 -38 c-12 -20 -49 -80 -82 -132 -73 -117 -356 -578 -370 -603 -5 -10 -8
-21 -5 -23 2 -3 92 16 198 41 371 87 584 113 787 96 266 -23 434 -68 802 -218
169 -68 303 -134 880 -431 313 -161 540 -241 747 -263 372 -40 771 125 1185
491 46 41 97 92 112 112 31 43 32 46 201 918 104 535 199 1015 244 1235 l17
79 189 63 c318 105 623 221 753 287 122 62 205 153 255 279 46 115 34 254 -42
466 -51 143 -88 205 -171 287 -38 38 -74 80 -80 94 -9 24 -122 636 -136 738
-5 42 -3 49 14 58 26 12 269 219 302 258 41 48 59 89 60 137 0 96 -40 163
-173 280 -691 612 -956 865 -975 929 -6 19 -27 116 -47 215 -40 202 -61 268
-119 370 -62 111 -286 400 -413 535 -35 37 -63 73 -63 82 0 8 14 59 30 114 46
149 60 243 60 402 0 189 -37 357 -119 547 -144 329 -487 614 -848 704 -141 35
-367 52 -473 34z m395 -211 c146 -40 281 -104 400 -188 69 -49 208 -188 252
-254 268 -398 270 -889 4 -1272 -52 -75 -166 -196 -176 -186 -3 3 -12 44 -21
92 -23 132 -60 250 -115 365 -27 57 -49 108 -49 113 0 5 29 39 65 74 75 76
124 159 155 263 20 63 22 88 17 180 -10 189 -98 370 -239 492 -259 224 -708
208 -990 -34 -87 -74 -157 -168 -223 -300 l-60 -120 -120 -42 c-66 -23 -133
-48 -150 -55 -16 -7 -45 -16 -64 -20 l-33 -8 6 40 c11 68 57 197 103 286 46
91 177 268 206 277 9 4 17 12 17 18 1 19 168 141 250 182 100 50 227 93 325
110 113 20 347 13 440 -13z m-55 -366 c129 -31 260 -126 321 -233 38 -66 69
-179 69 -250 0 -94 -63 -228 -130 -278 -39 -29 -49 -25 -130 48 -88 80 -168
136 -268 186 -61 30 -92 51 -90 61 2 8 28 31 57 52 45 32 63 38 104 38 86 0
138 -46 151 -132 13 -86 102 -126 163 -74 26 22 28 30 28 93 -1 56 -6 79 -32
129 -33 62 -88 120 -145 150 -50 27 -233 32 -296 9 -75 -29 -129 -71 -185
-146 -48 -64 -54 -70 -82 -65 -16 3 -72 8 -122 12 -106 8 -110 13 -71 81 77
132 187 229 322 283 120 48 235 60 336 36z m-1413 -189 c9 -5 5 -26 -13 -80
-32 -92 -70 -271 -79 -367 -7 -74 -7 -75 -64 -135 -219 -228 -326 -491 -347
-857 -7 -124 11 -110 -159 -128 -114 -13 -220 -38 -321 -75 -72 -28 -101 -43
-251 -132 l-93 -56 -42 39 c-181 166 -293 211 -506 201 -133 -5 -198 -23 -377
-105 -227 -103 -385 -162 -385 -144 0 19 81 305 109 382 76 214 170 395 302
582 50 70 104 128 194 209 118 106 159 154 98 113 -16 -10 -68 -43 -118 -73
-244 -149 -403 -296 -591 -546 -145 -191 -290 -457 -402 -736 l-63 -156 -112
-45 c-126 -51 -163 -62 -171 -50 -5 9 81 283 132 418 79 209 238 495 380 684
72 95 253 282 357 370 376 314 808 513 1345 619 143 28 417 66 535 75 93 6
630 1 642 -7z m968 -437 c214 -57 384 -161 520 -318 113 -130 181 -261 228
-434 31 -116 30 -364 -1 -483 -48 -180 -101 -275 -216 -382 -170 -159 -387
-233 -682 -233 l-153 0 -17 32 c-91 176 -258 359 -435 478 -63 42 -124 82
-133 87 -22 12 -45 124 -45 224 -2 179 95 374 242 490 138 109 240 143 412
137 102 -3 116 -6 185 -39 188 -90 299 -269 288 -469 -10 -177 -140 -314 -329
-343 -60 -9 -73 -8 -127 12 -201 75 -254 328 -90 434 20 12 48 17 100 17 70 0
74 -1 99 -33 14 -17 34 -57 44 -87 25 -77 48 -100 102 -100 66 0 93 31 93 108
0 48 -7 73 -35 130 -60 119 -140 172 -269 180 -185 11 -323 -65 -394 -216 -25
-52 -27 -68 -27 -182 0 -119 1 -128 31 -190 89 -187 288 -296 494 -270 150 20
241 62 339 159 73 72 123 155 147 246 18 68 17 254 -1 335 -54 230 -245 421
-490 490 -177 50 -437 7 -617 -101 -243 -147 -398 -439 -398 -750 l0 -90 -37
7 c-21 4 -50 13 -65 21 l-28 14 0 127 c1 284 95 514 292 712 153 154 312 244
513 291 111 26 344 20 460 -11z m1513 -948 c287 -356 323 -419 357 -626 37
-216 53 -284 82 -340 29 -55 148 -177 353 -361 69 -62 181 -163 250 -225 69
-62 181 -163 250 -224 156 -139 270 -253 270 -269 0 -18 -164 -169 -338 -308
-25 -20 -49 -44 -54 -53 -6 -11 2 -76 22 -189 17 -94 32 -192 33 -216 2 -43 0
-46 -38 -68 -74 -42 -339 -160 -423 -188 -46 -15 -81 -29 -78 -32 7 -8 162 14
375 53 113 21 197 32 202 27 5 -5 16 -52 24 -104 36 -223 36 -223 139 -329
120 -123 160 -201 192 -375 29 -161 14 -232 -66 -319 -79 -85 -431 -231 -933
-385 -338 -104 -471 -121 -978 -121 l-385 0 -51 26 c-77 38 -233 214 -702 789
-126 155 -121 151 -175 135 -25 -7 -82 -11 -133 -9 -77 4 -98 9 -167 42 -89
42 -124 69 -176 135 -46 57 -205 372 -193 382 4 3 49 33 98 65 116 76 246 201
295 285 43 75 94 223 111 325 8 47 10 126 6 237 l-7 167 35 82 c81 187 111
367 102 595 -6 157 -7 154 58 154 53 0 213 36 306 69 142 50 308 153 399 245
24 25 49 46 55 47 11 0 35 33 148 204 86 128 128 223 160 357 l23 96 90 70
c91 70 171 155 254 269 25 35 50 62 55 62 6 0 74 -80 153 -177z m-5793 -1 c3
-5 -13 -51 -36 -103 -77 -173 -156 -392 -193 -533 -20 -77 -45 -165 -54 -195
l-18 -55 -114 -48 c-63 -27 -239 -101 -390 -164 -151 -63 -315 -132 -365 -154
-49 -21 -105 -39 -123 -39 -84 0 -229 125 -278 240 -32 78 -53 167 -54 233 0
54 0 54 -100 32 -36 -8 -108 -14 -160 -14 -160 -1 -285 44 -434 153 -74 55
-249 244 -254 275 -3 16 22 20 250 40 342 30 730 79 1233 157 453 70 913 147
1010 168 77 18 73 17 80 7z m3058 -401 c277 -75 466 -201 631 -420 84 -112
145 -238 181 -370 45 -167 43 -424 -5 -592 -12 -43 -33 -49 -51 -15 -21 38
-131 147 -211 209 -48 36 -78 66 -78 77 0 11 7 54 16 97 37 176 -16 377 -142
542 -18 25 -34 49 -34 53 0 5 -5 9 -12 9 -7 0 -26 13 -43 29 -45 43 -190 117
-275 140 -90 25 -236 28 -337 7 -221 -47 -438 -197 -541 -373 -93 -158 -126
-279 -125 -453 0 -134 12 -217 45 -320 23 -72 76 -186 108 -230 24 -33 25 -53
6 -129 -8 -31 -17 -93 -21 -138 -6 -74 -9 -83 -27 -83 -25 0 -132 102 -214
205 -182 226 -269 557 -224 845 39 242 186 509 363 657 189 158 318 223 533
268 102 21 354 13 457 -15z m-1454 -117 c61 -31 166 -123 174 -152 3 -12 -12
-42 -40 -82 -54 -76 -129 -232 -167 -347 -32 -94 -38 -104 -241 -358 -234
-293 -287 -344 -359 -344 -34 0 -112 35 -119 54 -4 10 57 97 180 258 103 134
217 283 255 332 37 48 68 93 68 100 0 6 -66 -55 -147 -134 -178 -176 -340
-328 -376 -355 -14 -11 -26 -24 -27 -29 0 -10 -67 -70 -109 -98 -55 -37 -211
-12 -211 34 0 10 66 86 148 171 82 84 175 180 207 214 31 34 66 65 76 68 11 4
19 10 19 14 0 5 26 35 58 67 31 33 91 95 132 138 l75 80 -55 -43 c-30 -24
-149 -115 -265 -201 -115 -87 -281 -211 -367 -277 -203 -155 -244 -177 -312
-171 -38 3 -70 15 -114 42 -34 21 -62 43 -62 49 1 12 523 364 870 587 96 62
178 116 182 119 4 3 -243 -119 -548 -271 -707 -352 -681 -341 -803 -336 -77 4
-109 11 -161 33 -95 41 -101 49 -54 73 22 11 107 47 189 82 192 79 763 321
1200 508 458 196 472 201 570 201 68 1 88 -3 134 -26z m1423 -314 c131 -44
254 -156 304 -277 25 -60 28 -80 28 -182 1 -178 -6 -189 -111 -164 -79 19
-261 17 -348 -2 -38 -9 -95 -22 -125 -29 -70 -16 -80 -6 -80 83 0 72 8 92 59
145 45 47 89 67 152 67 72 0 93 -12 137 -82 56 -86 58 -88 99 -88 49 0 83 32
83 77 0 46 -51 143 -96 183 -66 57 -117 74 -224 75 -88 0 -100 -3 -164 -34
-86 -42 -128 -85 -173 -178 -45 -93 -52 -166 -28 -274 l18 -79 -80 -78 c-44
-42 -95 -98 -113 -124 -18 -27 -40 -48 -47 -48 -19 0 -60 95 -83 196 -24 103
-26 255 -5 339 8 33 34 98 57 145 76 155 249 297 410 335 88 22 258 19 330 -6z
m-1507 -672 c0 -232 0 -234 -25 -269 -13 -20 -39 -43 -57 -52 -70 -33 -203
-11 -203 35 0 12 22 60 49 108 26 47 79 147 116 221 67 135 100 190 113 190 4
0 7 -105 7 -233z m-2222 84 c23 -15 77 -47 120 -70 42 -24 77 -45 77 -47 0 -2
-37 -22 -82 -45 -45 -23 -228 -121 -407 -218 -591 -322 -845 -455 -900 -474
-137 -46 -447 -64 -560 -33 -78 22 -168 87 -233 169 -26 32 -29 40 -17 51 8 7
120 43 249 80 323 92 566 169 755 237 148 53 710 278 870 348 39 17 74 30 78
31 5 0 27 -13 50 -29z m287 -135 c25 -7 91 -17 148 -21 l102 -7 63 -52 c34
-28 96 -67 137 -86 67 -31 87 -35 180 -40 103 -5 106 -6 177 -50 40 -25 73
-51 73 -58 0 -7 -39 -50 -87 -95 -49 -45 -164 -156 -258 -248 -93 -91 -263
-254 -377 -361 -191 -180 -212 -197 -284 -227 -141 -59 -340 -54 -418 11 -20
16 -36 36 -36 43 0 7 48 57 108 110 59 54 127 116 152 139 25 23 113 103 195
176 83 74 209 189 281 255 72 66 169 155 217 198 48 43 87 83 87 89 0 16 -55
-20 -358 -239 -158 -114 -330 -237 -382 -275 -52 -37 -158 -114 -235 -169
-207 -150 -205 -149 -377 -149 -203 0 -301 28 -425 121 -29 22 -53 45 -53 52
1 7 40 38 88 70 48 32 215 146 372 253 479 328 787 534 799 534 3 0 13 9 21
20 17 24 30 24 90 6z m3669 -71 c244 -63 438 -249 522 -500 20 -61 23 -88 22
-205 -1 -159 -19 -232 -85 -348 -115 -202 -285 -292 -548 -292 -108 0 -135 3
-186 23 -124 49 -209 127 -271 252 -48 94 -63 154 -63 252 0 202 130 366 329
413 116 27 227 -6 315 -95 63 -63 86 -120 86 -215 0 -55 -5 -73 -28 -111 -58
-91 -156 -137 -245 -114 -26 7 -56 20 -68 31 -53 48 -76 155 -44 198 39 52
118 73 146 40 8 -9 21 -35 29 -57 43 -115 186 -87 166 32 -23 133 -111 201
-262 201 -104 0 -199 -64 -245 -164 -13 -29 -19 -65 -19 -121 0 -68 4 -89 29
-140 31 -66 94 -130 163 -166 63 -34 218 -34 299 -1 99 40 188 134 222 236 23
67 23 225 0 292 -51 149 -155 254 -302 305 -66 23 -240 26 -316 5 -160 -43
-297 -160 -370 -319 -45 -97 -54 -142 -55 -257 0 -101 10 -145 59 -277 17 -46
27 -83 22 -83 -21 0 -93 95 -130 171 -66 136 -88 293 -62 443 50 287 300 532
599 586 63 12 219 4 291 -15z m-2520 -278 c30 -12 59 -29 64 -38 15 -24 -12
-62 -563 -806 -122 -165 -189 -247 -211 -258 -50 -26 -175 -31 -240 -10 -61
21 -125 59 -133 82 -7 17 3 33 88 132 59 70 130 156 541 656 77 94 161 191
187 218 l47 47 83 0 c62 -1 97 -7 137 -23z m882 -82 c24 -54 106 -198 148
-259 17 -24 65 -80 106 -125 46 -48 75 -87 73 -97 -2 -12 -30 -26 -83 -44
-112 -38 -153 -57 -207 -96 -40 -30 -47 -32 -50 -17 -3 10 4 40 14 66 32 85
18 74 -33 -26 -29 -59 -63 -110 -82 -125 -56 -45 -137 -134 -207 -227 -80
-106 -88 -114 -160 -150 -46 -24 -71 -29 -156 -33 -99 -4 -174 8 -174 29 0 13
278 740 345 902 32 76 55 141 52 143 -3 3 -26 -34 -52 -83 -297 -562 -471
-887 -499 -932 -45 -70 -173 -117 -298 -109 -85 6 -158 37 -158 68 0 11 32 75
71 142 39 68 103 179 141 248 39 69 78 136 88 150 10 14 43 72 74 130 31 58
104 187 163 288 l108 182 150 4 c127 3 155 1 185 -14 106 -52 239 -54 335 -4
33 17 66 32 73 33 7 0 22 -19 33 -44z m597 -641 c23 -16 72 -103 72 -127 0
-11 -22 -16 -86 -22 -177 -15 -368 -88 -487 -187 -179 -151 -297 -407 -297
-647 0 -245 123 -541 299 -720 184 -186 430 -281 693 -267 194 10 333 37 506
99 39 15 72 22 72 17 0 -13 -73 -62 -155 -102 -149 -75 -330 -110 -565 -112
-181 -1 -251 11 -383 65 -243 100 -452 304 -560 544 -68 155 -82 227 -82 435
1 208 15 283 79 424 99 216 289 416 496 521 150 76 347 115 398 79z m217 -371
c98 -40 199 -140 250 -249 37 -76 38 -83 39 -194 1 -101 -2 -121 -22 -162 -39
-79 -102 -140 -184 -178 -65 -31 -82 -34 -154 -34 -100 1 -153 24 -207 89 -51
61 -67 103 -67 178 0 52 5 71 29 108 40 64 84 89 155 89 95 0 117 -19 156
-135 11 -32 26 -63 33 -67 6 -4 35 -8 64 -8 68 0 93 28 93 106 0 64 -51 172
-104 219 -66 59 -122 80 -224 83 -115 5 -182 -17 -269 -87 -92 -74 -133 -169
-133 -311 0 -140 45 -245 143 -336 138 -128 323 -166 507 -103 168 58 291 177
351 340 21 56 24 81 24 209 0 80 -3 160 -7 178 l-7 32 78 0 c43 0 99 -3 124
-6 45 -6 46 -7 78 -78 86 -190 109 -278 109 -411 0 -241 -191 -496 -451 -601
-141 -58 -233 -75 -419 -81 -199 -6 -238 1 -364 64 -138 70 -205 127 -297 253
-77 106 -129 241 -150 389 -15 104 -3 227 31 325 41 120 164 265 288 338 147
87 353 104 507 41z m-2291 -419 c44 -20 193 -54 238 -54 4 0 25 -26 45 -57 51
-78 183 -244 255 -320 32 -34 58 -68 58 -76 0 -7 -9 -22 -21 -33 -11 -10 -41
-49 -66 -87 -25 -38 -53 -71 -61 -75 -37 -14 -305 320 -424 528 -125 219 -126
221 -24 174z m3566 -519 c74 -37 136 -54 249 -65 51 -5 100 -15 108 -22 8 -6
126 -145 261 -307 287 -345 435 -502 507 -538 143 -73 284 -89 717 -78 l297 7
21 -34 c11 -18 48 -87 82 -153 33 -65 76 -143 94 -171 l34 -53 -15 -83 c-8
-46 -57 -301 -109 -568 -52 -267 -107 -546 -121 -620 -43 -223 -46 -230 -128
-305 -156 -145 -305 -249 -482 -337 -205 -103 -298 -123 -532 -115 -150 4
-179 8 -268 35 -130 40 -234 84 -431 185 -479 244 -756 380 -899 441 -208 89
-447 168 -610 202 -237 49 -611 44 -793 -11 -26 -8 -57 -15 -70 -15 -23 0 -23
0 11 63 50 93 254 425 294 480 26 36 54 57 106 83 225 114 345 221 424 379 61
121 79 291 48 452 -8 43 -15 83 -15 90 0 6 26 17 58 23 362 73 586 183 754
371 146 165 237 359 273 584 9 55 18 105 20 112 5 15 42 5 115 -32z m-2617
-62 c3 -10 8 -35 12 -55 5 -35 4 -38 -22 -43 -94 -18 -165 -39 -215 -65 -75
-39 -86 -38 -51 8 84 113 261 212 276 155z m95 -240 c47 -26 162 -196 162
-240 0 -59 -46 -121 -117 -157 -94 -47 -203 19 -203 124 0 50 39 90 88 90 52
0 69 -14 76 -65 l7 -45 43 0 c42 0 44 2 50 33 6 33 -7 90 -28 116 -6 8 -29 27
-50 43 -31 22 -50 28 -90 28 -163 -1 -253 -154 -181 -308 43 -93 108 -131 221
-132 115 0 203 50 250 141 13 27 29 49 35 49 6 0 34 -19 63 -43 28 -23 80 -60
114 -82 87 -56 83 -71 -20 -77 -127 -7 -236 -60 -322 -155 -37 -41 -41 -43
-95 -43 -98 0 -223 52 -299 124 -62 58 -112 182 -112 282 0 145 100 285 232
323 55 16 140 13 176 -6z m805 -605 c63 -19 147 -104 193 -194 36 -72 39 -83
42 -182 3 -61 -1 -129 -8 -161 -52 -239 -247 -380 -511 -369 -84 3 -104 8
-165 38 -111 54 -198 153 -252 285 -34 84 -35 235 -3 315 28 67 75 127 138
173 68 48 131 67 231 67 77 0 89 -3 145 -35 34 -19 74 -49 88 -67 58 -75 78
-222 40 -297 -38 -74 -133 -126 -219 -119 -93 8 -152 72 -152 168 0 89 43 125
140 118 44 -3 44 -3 68 -65 24 -65 40 -76 80 -59 18 8 22 17 22 57 0 29 -9 66
-22 93 -18 38 -29 47 -76 65 -118 46 -230 11 -290 -89 -31 -51 -33 -60 -30
-130 4 -88 25 -138 81 -191 58 -57 108 -72 220 -67 80 3 100 8 142 32 66 39
98 74 131 143 59 122 40 275 -49 399 -24 32 -47 65 -51 72 -9 16 14 16 67 0z
m-852 -418 c4 -71 15 -142 28 -186 29 -97 28 -118 -4 -79 -59 72 -103 219 -97
328 l3 58 32 -3 32 -3 6 -115z"/>
<path d="M10668 10268 c-63 -51 -171 -137 -239 -190 -110 -85 -270 -212 -769
-606 -74 -58 -184 -144 -245 -190 -60 -46 -114 -90 -118 -98 -10 -17 10 -19
48 -4 15 6 171 53 346 105 276 82 328 100 377 135 54 37 59 39 102 30 70 -14
233 -12 315 5 245 51 416 240 414 460 0 33 -4 80 -8 104 l-9 43 44 27 c24 14
44 31 44 37 0 15 -161 227 -176 231 -6 2 -63 -38 -126 -89z m76 -380 c-9 -73
-29 -112 -90 -175 -63 -64 -113 -88 -228 -109 -84 -16 -116 -14 -116 5 0 5 64
58 143 117 78 58 156 119 172 134 35 31 106 80 118 80 4 0 5 -24 1 -52z"/>
<path d="M4719 10946 c-15 -15 -1389 -233 -1709 -271 -117 -14 -216 -28 -219
-31 -21 -20 108 -122 196 -154 62 -23 82 -25 233 -25 133 1 186 5 275 24 180
37 1168 269 1198 280 21 8 37 29 62 83 19 40 35 78 35 85 0 12 -60 19 -71 9z"/>
<path d="M4290 10425 c-162 -46 -387 -110 -499 -142 -122 -34 -205 -63 -209
-71 -12 -32 54 -171 106 -224 56 -59 87 -55 351 46 328 127 495 196 507 211 6
8 21 63 33 122 12 59 25 116 27 126 3 10 0 17 -8 16 -7 0 -146 -38 -308 -84z"/>
<path d="M8030 6130 c-30 -16 -118 -47 -195 -70 l-140 -41 3 -110 c3 -87 0
-129 -17 -203 -39 -169 -109 -324 -180 -399 -76 -82 -213 -170 -322 -208 -22
-7 -50 -29 -68 -53 -37 -47 -190 -309 -185 -315 2 -2 51 2 109 9 110 14 389 8
490 -9 27 -5 55 -7 62 -4 14 5 35 57 112 278 78 224 207 588 266 750 118 328
143 405 132 404 -7 0 -37 -13 -67 -29z"/>
<path d="M3555 2538 c-2 -7 -31 -146 -64 -308 -33 -162 -127 -616 -210 -1008
-83 -392 -151 -720 -151 -728 0 -12 58 -14 395 -14 l394 0 10 38 c5 20 15 64
21 97 23 120 122 570 130 591 8 21 14 21 330 26 177 3 325 9 330 14 7 7 100
433 100 456 0 3 -144 8 -321 11 -177 3 -323 8 -326 11 -3 3 6 60 20 128 14 68
28 142 32 166 l7 42 439 0 c431 0 439 0 439 -20 0 -17 -155 -769 -271 -1315
-22 -104 -42 -202 -45 -218 l-6 -27 986 0 c929 0 985 1 989 18 3 9 13 60 22
112 10 52 21 101 24 108 5 9 19 4 52 -21 72 -54 187 -112 289 -145 193 -62
310 -72 847 -72 l452 0 18 27 c10 16 79 150 152 299 l134 271 344 7 c190 4
347 6 348 4 2 -2 20 -128 39 -281 20 -153 39 -289 42 -302 l6 -25 673 0 673 0
26 108 c40 170 96 440 96 467 l0 25 243 0 c420 1 549 18 722 95 222 98 389
300 472 570 25 83 27 104 28 260 l0 170 -32 67 c-22 46 -52 88 -98 133 -73 71
-128 104 -245 143 l-75 26 -747 3 -746 4 -15 -68 c-9 -37 -41 -192 -72 -343
-31 -151 -77 -367 -101 -480 -25 -113 -63 -292 -83 -398 -36 -179 -45 -212
-55 -201 -2 2 -27 162 -55 354 -28 193 -77 526 -109 740 l-57 390 -551 3 -551
2 -95 -167 c-52 -93 -144 -256 -203 -363 -59 -107 -136 -244 -170 -305 -34
-60 -80 -141 -101 -180 -67 -123 -211 -378 -251 -443 l-38 -64 -170 5 c-150 4
-177 7 -232 28 -98 39 -146 78 -189 156 -37 65 -39 73 -42 173 -5 124 11 197
65 304 46 90 90 145 167 203 141 107 232 132 504 140 130 4 207 10 214 17 5 6
70 119 144 251 l133 240 -382 3 c-406 4 -478 -1 -647 -44 -361 -90 -647 -294
-837 -599 -63 -102 -124 -278 -149 -440 -25 -155 -7 -358 41 -467 7 -17 -19
-18 -470 -18 l-476 0 6 21 c4 12 17 76 29 143 l21 121 302 5 c166 3 305 8 308
12 4 4 28 111 54 238 l47 230 -298 0 c-164 0 -298 3 -298 8 0 4 11 60 25 125
14 64 25 131 25 147 l0 30 424 0 423 0 52 234 c28 129 51 239 51 245 0 17
-3319 16 -3325 -1z m5829 -628 c19 -151 36 -300 38 -330 l3 -55 -207 0 c-113
0 -210 4 -214 8 -5 4 56 137 135 295 166 333 190 377 201 365 5 -4 24 -132 44
-283z m2287 144 c86 -40 125 -117 108 -212 -28 -147 -111 -229 -274 -267 -70
-17 -360 -21 -370 -5 -5 8 85 456 100 498 4 11 43 13 198 10 170 -3 197 -6
238 -24z"/>
</g>
</svg>
