<?xml version="1.0" standalone="no"?>
<!DOCTYPE svg PUBLIC "-//W3C//DTD SVG 20010904//EN"
 "http://www.w3.org/TR/2001/REC-SVG-20010904/DTD/svg10.dtd">
<svg version="1.0" xmlns="http://www.w3.org/2000/svg"
 width="604.000000pt" height="413.000000pt" viewBox="0 0 604.000000 413.000000"
 preserveAspectRatio="xMidYMid meet">

<g transform="translate(0.000000,413.000000) scale(0.100000,-0.100000)"
fill="#000000" stroke="none">
<path d="M1955 3415 c-150 -25 -266 -71 -388 -154 -445 -300 -541 -924 -207
-1351 105 -136 268 -252 435 -310 137 -47 348 -63 480 -35 419 89 723 425 760
840 8 87 19 114 75 190 83 111 198 190 335 230 78 23 259 24 331 2 143 -43
275 -147 326 -257 23 -49 48 -156 48 -203 0 -25 -15 -21 -30 8 -22 41 -92 69
-159 62 -97 -8 -161 -55 -180 -131 -14 -56 -3 -90 56 -172 23 -34 43 -69 43
-78 0 -23 -86 -21 -145 4 -70 30 -117 27 -160 -12 -34 -29 -36 -35 -33 -77 3
-25 13 -67 23 -93 26 -66 13 -79 -54 -55 -92 32 -141 15 -141 -51 0 -22 8 -36
29 -51 272 -194 659 -224 956 -74 143 72 242 152 329 267 138 179 205 397 193
624 -26 501 -442 891 -952 892 -242 0 -507 -122 -684 -316 -133 -145 -220
-343 -237 -539 -9 -108 -33 -153 -134 -255 -65 -66 -103 -94 -160 -122 -338
-165 -736 -9 -806 315 -23 108 -16 147 17 89 45 -80 212 -84 291 -8 72 70 69
144 -9 253 -26 36 -43 70 -39 78 8 21 52 19 127 -6 79 -25 121 -26 157 -3 57
37 66 80 32 159 -11 26 -20 56 -20 67 0 22 -4 22 123 2 54 -9 87 10 87 51 0
41 -34 73 -135 125 -184 94 -390 128 -580 95z m245 -35 c90 -11 232 -51 290
-83 120 -65 140 -79 140 -99 0 -18 -4 -19 -37 -14 -110 18 -139 18 -156 1 -23
-22 -21 -70 4 -121 29 -61 23 -95 -22 -117 -35 -17 -37 -17 -103 8 -82 31
-148 33 -176 5 -30 -30 -25 -60 20 -123 64 -89 73 -118 54 -167 -20 -50 -59
-78 -117 -86 -82 -11 -112 1 -157 61 -47 64 -83 85 -142 85 -127 0 -238 -117
-286 -301 -81 -307 8 -574 253 -764 19 -14 19 -15 -7 -6 -97 35 -244 136 -318
218 -264 296 -314 699 -129 1041 132 247 371 414 654 458 103 16 133 16 235 4z
m1805 -5 c117 -16 255 -94 353 -199 101 -111 172 -314 158 -455 -29 -277 -135
-439 -284 -429 l-47 3 -1 80 c-2 145 -47 250 -150 351 -69 67 -171 123 -264
145 -71 17 -239 17 -310 0 -90 -21 -228 -94 -297 -156 -35 -31 -63 -54 -63
-52 0 13 119 212 149 250 120 149 346 247 569 247 115 0 113 14 -4 30 -136 18
-282 -16 -393 -93 -98 -67 -277 -267 -325 -361 -15 -32 -30 -55 -32 -53 -2 2
5 33 17 68 92 289 302 500 590 593 83 26 211 47 259 40 14 -1 47 -6 75 -9z
m352 -91 c193 -101 358 -291 430 -496 92 -259 65 -509 -82 -778 -29 -52 -113
-147 -185 -208 -75 -63 -260 -163 -325 -176 -209 -41 -271 -45 -400 -22 -99
18 -191 48 -270 89 -79 41 -115 68 -115 84 0 23 26 25 85 8 31 -9 65 -13 76
-10 52 17 63 68 29 135 -26 51 -25 84 2 110 28 26 52 25 142 -5 91 -30 116
-31 150 -4 42 33 35 66 -34 159 -15 19 -32 49 -39 67 -12 29 -11 38 9 79 17
35 33 51 64 65 84 38 161 18 211 -55 35 -53 79 -76 140 -76 118 0 229 111 278
276 29 98 41 235 27 326 -25 180 -108 322 -260 447 -38 31 -8 25 67 -15z
m-2519 -601 c22 -5 23 -10 17 -48 -8 -58 12 -167 45 -240 42 -94 135 -187 234
-235 256 -123 543 -81 747 108 33 30 59 52 59 49 0 -20 -137 -241 -172 -278
-126 -133 -357 -227 -563 -229 -59 -1 -66 -3 -45 -12 14 -6 75 -11 135 -11
123 -1 178 12 278 65 104 55 316 279 372 394 15 30 29 54 31 51 9 -9 -48 -163
-89 -238 -139 -255 -378 -417 -675 -459 -102 -14 -185 -5 -284 31 -155 56
-289 186 -355 344 -24 57 -53 187 -53 238 0 61 31 221 55 280 56 139 163 217
263 190z"/>
<path d="M3675 3044 c-11 -3 -45 -12 -75 -22 l-55 -17 155 -6 c103 -4 172 -11
205 -22 66 -22 83 -21 54 2 -56 43 -219 80 -284 65z"/>
<path d="M2060 2017 c0 -4 20 -18 45 -32 89 -52 203 -68 300 -41 108 30 104
33 -40 32 -136 -1 -147 1 -282 40 -13 3 -23 4 -23 1z"/>
<path d="M1154 1206 c-12 -33 0 -51 35 -51 41 0 62 25 42 49 -17 20 -70 21
-77 2z"/>
<path d="M4020 1180 l-32 -40 28 0 c15 0 38 10 51 22 l23 21 23 -21 c21 -19
77 -31 77 -16 0 3 -12 21 -26 40 -23 29 -32 34 -69 34 -39 0 -47 -4 -75 -40z"/>
<path d="M4660 1205 c-21 -25 0 -50 41 -50 31 0 34 3 34 30 0 26 -4 30 -31 33
-19 2 -36 -3 -44 -13z"/>
<path d="M1020 1035 l0 -175 35 0 35 0 0 175 0 175 -35 0 -35 0 0 -175z"/>
<path d="M714 1163 c-10 -21 -44 -94 -76 -162 -32 -68 -58 -128 -58 -133 0 -4
18 -8 39 -8 36 0 40 3 51 35 l12 35 98 0 99 0 12 -35 c12 -33 16 -35 56 -35
l43 0 -19 38 c-22 43 -72 151 -112 240 l-28 62 -50 0 c-48 0 -51 -1 -67 -37z
m100 -95 c14 -35 26 -66 26 -70 0 -5 -27 -8 -60 -8 -33 0 -60 3 -60 8 0 13 54
132 61 132 3 0 18 -28 33 -62z"/>
<path d="M2918 1180 c-121 -64 -126 -230 -10 -301 30 -19 51 -23 117 -24 69 0
85 3 117 25 57 38 81 90 76 159 -5 69 -32 113 -88 141 -53 27 -160 27 -212 0z
m177 -61 c68 -33 60 -162 -11 -189 -66 -25 -151 -2 -173 47 -26 57 5 137 56
149 15 3 33 7 38 9 14 5 66 -4 90 -16z"/>
<path d="M1193 1113 l-33 -4 0 -125 0 -124 35 0 35 0 0 130 c0 72 -1 129 -2
128 -2 0 -18 -3 -35 -5z"/>
<path d="M1334 1102 c-29 -19 -64 -82 -64 -117 0 -37 34 -96 67 -116 43 -27
113 -22 147 10 28 26 36 26 36 1 0 -16 7 -20 38 -20 l37 0 0 125 0 125 -37 0
c-31 0 -38 -4 -38 -20 0 -26 -8 -25 -37 1 -32 31 -108 36 -149 11z m157 -71
c16 -16 29 -37 29 -46 0 -30 -55 -75 -92 -75 -51 1 -73 23 -73 75 0 52 22 74
73 75 24 0 42 -8 63 -29z"/>
<path d="M1767 1096 c-33 -23 -35 -23 -40 -5 -4 14 -14 19 -42 19 -37 0 -37
-1 -31 -31 3 -17 6 -74 6 -125 l0 -94 40 0 40 0 0 80 c0 69 3 82 22 100 25 23
66 26 94 6 16 -12 20 -29 23 -100 l3 -86 34 0 c38 0 36 -7 35 113 0 51 -5 77
-21 102 -32 52 -104 61 -163 21z"/>
<path d="M2071 1102 c-51 -25 -74 -63 -74 -117 0 -57 24 -93 81 -120 32 -15
41 -24 36 -37 -4 -15 1 -18 35 -18 31 0 41 -4 41 -16 0 -14 -8 -15 -55 -9 -36
4 -55 3 -55 -4 0 -17 36 -31 82 -31 47 0 61 7 70 31 9 23 -6 42 -44 55 l-32
11 46 11 c46 12 98 58 98 88 0 22 -67 18 -79 -5 -13 -23 -65 -43 -89 -34 -36
13 -62 46 -62 80 0 48 29 73 85 73 36 0 47 -4 61 -25 12 -19 25 -25 50 -25 40
0 44 15 12 55 -42 54 -140 72 -207 37z"/>
<path d="M2404 1111 c-41 -18 -64 -64 -64 -129 0 -54 3 -64 31 -91 17 -17 42
-34 55 -37 38 -10 94 3 119 26 27 25 35 25 35 0 0 -16 7 -20 38 -20 l38 0 0
125 0 125 -37 0 c-31 0 -38 -4 -41 -21 l-3 -21 -29 23 c-31 24 -107 35 -142
20z m148 -78 c36 -34 35 -57 -1 -94 -54 -53 -141 -26 -141 45 0 72 87 102 142
49z"/>
<path d="M3334 1106 c-70 -31 -98 -134 -54 -196 67 -94 239 -75 282 32 6 15 2
18 -28 18 -25 0 -41 -7 -57 -26 -33 -38 -91 -38 -123 0 -29 33 -30 65 -3 100
29 37 99 37 128 0 16 -20 27 -25 55 -22 l35 3 -15 32 c-30 61 -144 92 -220 59z"/>
<path d="M3675 1107 c-45 -21 -67 -51 -72 -101 -7 -57 10 -100 51 -129 25 -18
44 -22 106 -22 82 0 130 21 130 56 0 23 1 23 -59 3 -57 -18 -124 -6 -141 26
-10 19 -7 20 94 20 58 0 107 3 109 8 9 15 -23 99 -47 121 -31 29 -126 39 -171
18z m119 -58 c14 -11 24 -25 21 -30 -9 -13 -135 -12 -135 2 0 13 20 34 40 42
28 11 47 7 74 -14z"/>
<path d="M4002 1109 c-50 -19 -72 -60 -72 -128 0 -44 5 -56 34 -89 32 -34 39
-37 88 -37 39 0 61 6 84 22 31 22 32 22 37 3 4 -15 14 -20 40 -20 l34 0 0 125
0 125 -34 0 c-26 0 -36 -5 -40 -20 -5 -19 -6 -18 -41 5 -38 26 -88 31 -130 14z
m142 -75 c35 -35 33 -66 -5 -98 -60 -51 -133 -24 -133 49 0 73 83 103 138 49z"/>
<path d="M4418 1096 c-36 -24 -38 -24 -38 -6 0 17 -7 20 -41 20 -38 0 -41 -2
-35 -22 3 -13 6 -69 6 -125 l0 -103 40 0 40 0 0 80 c0 69 3 82 22 100 28 26
72 26 98 0 17 -17 20 -33 20 -100 l0 -80 40 0 40 0 0 73 c0 133 -25 177 -107
184 -40 4 -55 0 -85 -21z"/>
<path d="M4660 988 l0 -128 35 0 35 0 0 124 0 124 -35 4 -35 4 0 -128z"/>
<path d="M4861 1102 c-51 -26 -76 -65 -75 -118 2 -78 65 -134 152 -134 71 0
152 52 152 96 0 22 -67 18 -79 -5 -24 -44 -118 -45 -141 -1 -15 28 -12 73 6
98 12 18 25 22 64 22 42 0 52 -4 66 -25 12 -19 25 -25 50 -25 40 0 44 15 12
55 -42 54 -140 72 -207 37z"/>
<path d="M5195 1111 c-30 -13 -52 -42 -64 -85 -26 -99 40 -184 135 -173 27 3
54 13 68 26 28 26 36 26 36 1 0 -16 7 -20 38 -20 l37 0 0 125 0 125 -37 0
c-30 0 -37 -4 -40 -21 l-3 -21 -29 23 c-31 24 -107 35 -141 20z m146 -80 c16
-16 29 -37 29 -46 0 -9 -13 -30 -29 -46 -55 -55 -141 -26 -141 47 0 73 86 100
141 45z"/>
</g>
</svg>
