<svg xmlns="http://www.w3.org/2000/svg" xmlns:xlink="http://www.w3.org/1999/xlink" width="604" zoomAndPan="magnify" viewBox="0 0 452.88 309.749993" height="413" preserveAspectRatio="xMidYMid meet" version="1.0"><path fill="#ffffff" d="M 146.628906 53.578125 C 135.386719 55.449219 126.695312 58.898438 117.554688 65.117188 C 84.203125 87.597656 77.011719 134.359375 102.039062 166.359375 C 109.910156 176.550781 122.125 185.246094 134.640625 189.589844 C 144.90625 193.113281 160.71875 194.3125 170.609375 192.214844 C 202.007812 185.542969 224.792969 160.363281 227.5625 129.265625 C 228.164062 122.746094 228.988281 120.722656 233.183594 115.027344 C 239.40625 106.707031 248.023438 100.789062 258.289062 97.789062 C 264.132812 96.066406 277.699219 95.992188 283.09375 97.640625 C 293.8125 100.863281 303.703125 108.65625 307.523438 116.898438 C 309.25 120.570312 311.121094 128.589844 311.121094 132.113281 C 311.121094 133.984375 309.996094 133.6875 308.875 131.511719 C 307.226562 128.441406 301.980469 126.34375 296.957031 126.867188 C 289.6875 127.464844 284.894531 130.988281 283.46875 136.683594 C 282.417969 140.878906 283.242188 143.429688 287.664062 149.574219 C 289.390625 152.121094 290.886719 154.746094 290.886719 155.417969 C 290.886719 157.144531 284.441406 156.992188 280.023438 155.121094 C 274.777344 152.871094 271.253906 153.097656 268.03125 156.019531 C 265.484375 158.191406 265.332031 158.640625 265.558594 161.789062 C 265.785156 163.664062 266.53125 166.808594 267.28125 168.757812 C 269.230469 173.703125 268.257812 174.679688 263.234375 172.878906 C 256.339844 170.480469 252.667969 171.753906 252.667969 176.703125 C 252.667969 178.351562 253.269531 179.398438 254.84375 180.523438 C 275.226562 195.0625 304.226562 197.308594 326.484375 186.070312 C 337.199219 180.671875 344.621094 174.679688 351.140625 166.058594 C 361.480469 152.644531 366.5 136.308594 365.601562 119.296875 C 363.652344 81.753906 332.480469 52.527344 294.261719 52.453125 C 276.125 52.453125 256.265625 61.59375 243 76.132812 C 233.035156 87 226.515625 101.835938 225.242188 116.523438 C 224.566406 124.617188 222.769531 127.992188 215.199219 135.636719 C 210.328125 140.582031 207.480469 142.679688 203.207031 144.777344 C 177.878906 157.144531 148.054688 145.453125 142.808594 121.171875 C 141.082031 113.078125 141.609375 110.15625 144.082031 114.503906 C 147.453125 120.496094 159.96875 120.796875 165.890625 115.101562 C 171.285156 109.855469 171.058594 104.308594 165.214844 96.140625 C 163.265625 93.445312 161.992188 90.894531 162.292969 90.296875 C 162.890625 88.722656 166.1875 88.871094 171.808594 90.746094 C 177.730469 92.621094 180.875 92.695312 183.574219 90.972656 C 187.847656 88.199219 188.519531 84.976562 185.972656 79.054688 C 185.148438 77.105469 184.472656 74.859375 184.472656 74.035156 C 184.472656 72.386719 184.175781 72.386719 193.691406 73.886719 C 197.738281 74.558594 200.210938 73.136719 200.210938 70.0625 C 200.210938 66.992188 197.664062 64.59375 190.09375 60.695312 C 176.304688 53.652344 160.867188 51.101562 146.628906 53.578125 Z M 164.988281 56.199219 C 171.734375 57.023438 182.375 60.019531 186.722656 62.417969 C 195.714844 67.289062 197.214844 68.339844 197.214844 69.839844 C 197.214844 71.1875 196.914062 71.261719 194.441406 70.886719 C 186.199219 69.539062 184.023438 69.539062 182.75 70.8125 C 181.027344 72.460938 181.175781 76.058594 183.050781 79.878906 C 185.222656 84.453125 184.773438 87 181.402344 88.648438 C 178.777344 89.921875 178.628906 89.921875 173.683594 88.046875 C 167.539062 85.726562 162.589844 85.574219 160.492188 87.671875 C 158.246094 89.921875 158.621094 92.171875 161.992188 96.890625 C 166.789062 103.5625 167.460938 105.734375 166.039062 109.40625 C 164.539062 113.152344 161.617188 115.25 157.269531 115.851562 C 151.125 116.675781 148.878906 115.777344 145.503906 111.28125 C 141.984375 106.484375 139.285156 104.910156 134.863281 104.910156 C 125.347656 104.910156 117.027344 113.675781 113.429688 127.464844 C 107.359375 150.472656 114.03125 170.480469 132.390625 184.71875 C 133.816406 185.769531 133.816406 185.84375 131.867188 185.171875 C 124.597656 182.546875 113.582031 174.976562 108.035156 168.832031 C 88.25 146.652344 84.503906 116.449219 98.367188 90.820312 C 108.261719 72.3125 126.171875 59.796875 147.378906 56.5 C 155.097656 55.300781 157.347656 55.300781 164.988281 56.199219 Z M 300.253906 56.574219 C 309.023438 57.773438 319.363281 63.617188 326.710938 71.488281 C 334.277344 79.804688 339.597656 95.019531 338.550781 105.585938 C 336.375 126.34375 328.433594 138.484375 317.265625 137.734375 L 313.746094 137.507812 L 313.667969 131.511719 C 313.519531 120.648438 310.148438 112.777344 302.429688 105.210938 C 297.257812 100.1875 289.613281 95.992188 282.644531 94.34375 C 277.324219 93.070312 264.734375 93.070312 259.414062 94.34375 C 252.667969 95.917969 242.328125 101.386719 237.15625 106.035156 C 234.535156 108.355469 232.433594 110.082031 232.433594 109.929688 C 232.433594 108.957031 241.351562 94.042969 243.601562 91.195312 C 252.59375 80.03125 269.53125 72.6875 286.242188 72.6875 C 294.859375 72.6875 294.710938 71.636719 285.941406 70.4375 C 275.75 69.089844 264.808594 71.636719 256.492188 77.40625 C 249.148438 82.429688 235.734375 97.414062 232.136719 104.460938 C 231.011719 106.859375 229.886719 108.582031 229.738281 108.433594 C 229.585938 108.28125 230.113281 105.957031 231.011719 103.335938 C 237.90625 81.679688 253.644531 65.867188 275.226562 58.898438 C 281.445312 56.949219 291.039062 55.375 294.636719 55.898438 C 295.683594 55.972656 298.15625 56.347656 300.253906 56.574219 Z M 326.632812 63.394531 C 341.097656 70.960938 353.460938 85.199219 358.859375 100.5625 C 365.753906 119.972656 363.730469 138.707031 352.714844 158.867188 C 350.539062 162.761719 344.246094 169.882812 338.847656 174.453125 C 333.230469 179.175781 319.363281 186.667969 314.492188 187.644531 C 298.832031 190.714844 294.183594 191.015625 284.519531 189.292969 C 277.097656 187.941406 270.203125 185.695312 264.285156 182.621094 C 258.363281 179.550781 255.667969 177.527344 255.667969 176.328125 C 255.667969 174.601562 257.613281 174.453125 262.035156 175.726562 C 264.359375 176.402344 266.90625 176.703125 267.730469 176.476562 C 271.628906 175.203125 272.453125 171.382812 269.90625 166.359375 C 267.957031 162.539062 268.03125 160.066406 270.054688 158.117188 C 272.152344 156.167969 273.953125 156.242188 280.695312 158.492188 C 287.515625 160.738281 289.390625 160.816406 291.9375 158.792969 C 295.085938 156.316406 294.558594 153.84375 289.390625 146.875 C 288.265625 145.453125 286.992188 143.203125 286.464844 141.855469 C 285.566406 139.683594 285.640625 139.007812 287.140625 135.933594 C 288.414062 133.3125 289.613281 132.113281 291.9375 131.0625 C 298.230469 128.214844 304.003906 129.714844 307.75 135.183594 C 310.371094 139.15625 313.667969 140.878906 318.242188 140.878906 C 327.082031 140.878906 335.402344 132.5625 339.074219 120.199219 C 341.246094 112.851562 342.148438 102.585938 341.097656 95.765625 C 339.222656 82.277344 333.003906 71.636719 321.613281 62.269531 C 318.765625 59.945312 321.011719 60.394531 326.632812 63.394531 Z M 137.863281 108.433594 C 139.511719 108.804688 139.585938 109.179688 139.136719 112.027344 C 138.535156 116.375 140.035156 124.542969 142.507812 130.015625 C 145.65625 137.058594 152.625 144.027344 160.042969 147.625 C 179.226562 156.84375 200.734375 153.695312 216.023438 139.53125 C 218.496094 137.285156 220.445312 135.636719 220.445312 135.859375 C 220.445312 137.359375 210.179688 153.921875 207.554688 156.691406 C 198.113281 166.660156 180.800781 173.703125 165.363281 173.855469 C 160.941406 173.929688 160.417969 174.078125 161.992188 174.753906 C 163.042969 175.203125 167.613281 175.578125 172.109375 175.578125 C 181.328125 175.652344 185.449219 174.679688 192.941406 170.707031 C 200.734375 166.585938 216.621094 149.796875 220.820312 141.179688 C 221.945312 138.933594 222.992188 137.132812 223.144531 137.359375 C 223.816406 138.03125 219.546875 149.574219 216.472656 155.195312 C 206.054688 174.304688 188.144531 186.445312 165.890625 189.589844 C 158.246094 190.640625 152.023438 189.964844 144.605469 187.269531 C 132.992188 183.070312 122.949219 173.328125 118.003906 161.488281 C 116.203125 157.21875 114.03125 147.476562 114.03125 143.652344 C 114.03125 139.082031 116.355469 127.09375 118.152344 122.671875 C 122.347656 112.253906 130.367188 106.410156 137.863281 108.433594 Z M 137.863281 108.433594 " fill-opacity="1" fill-rule="nonzero"/><path fill="#ffffff" d="M 275.523438 81.378906 C 274.699219 81.605469 272.152344 82.277344 269.90625 83.027344 L 265.785156 84.300781 L 277.398438 84.75 C 285.117188 85.050781 290.289062 85.574219 292.761719 86.398438 C 297.707031 88.046875 298.980469 87.972656 296.808594 86.25 C 292.613281 83.027344 280.394531 80.253906 275.523438 81.378906 Z M 275.523438 81.378906 " fill-opacity="1" fill-rule="nonzero"/><path fill="#ffffff" d="M 154.5 158.339844 C 154.5 158.640625 155.996094 159.691406 157.871094 160.738281 C 164.539062 164.636719 173.082031 165.835938 180.351562 163.8125 C 188.445312 161.5625 188.144531 161.339844 177.355469 161.414062 C 167.164062 161.488281 166.339844 161.339844 156.222656 158.417969 C 155.246094 158.191406 154.5 158.117188 154.5 158.339844 Z M 154.5 158.339844 " fill-opacity="1" fill-rule="nonzero"/><path fill="#ffffff" d="M 86.601562 219.117188 C 85.703125 221.589844 86.601562 222.941406 89.226562 222.941406 C 92.296875 222.941406 93.871094 221.066406 92.375 219.265625 C 91.097656 217.769531 87.128906 217.695312 86.601562 219.117188 Z M 86.601562 219.117188 " fill-opacity="1" fill-rule="nonzero"/><path fill="#ffffff" d="M 301.378906 221.066406 L 298.980469 224.0625 L 301.078125 224.0625 C 302.203125 224.0625 303.925781 223.3125 304.902344 222.414062 L 306.625 220.839844 L 308.347656 222.414062 C 309.921875 223.839844 314.121094 224.738281 314.121094 223.613281 C 314.121094 223.390625 313.21875 222.039062 312.171875 220.617188 C 310.445312 218.441406 309.773438 218.070312 307 218.070312 C 304.078125 218.070312 303.476562 218.367188 301.378906 221.066406 Z M 301.378906 221.066406 " fill-opacity="1" fill-rule="nonzero"/><path fill="#ffffff" d="M 349.339844 219.191406 C 347.765625 221.066406 349.339844 222.941406 352.414062 222.941406 C 354.738281 222.941406 354.960938 222.714844 354.960938 220.691406 C 354.960938 218.742188 354.660156 218.441406 352.636719 218.21875 C 351.214844 218.070312 349.941406 218.441406 349.339844 219.191406 Z M 349.339844 219.191406 " fill-opacity="1" fill-rule="nonzero"/><path fill="#ffffff" d="M 76.5625 231.933594 L 76.5625 245.046875 L 81.808594 245.046875 L 81.808594 218.816406 L 76.5625 218.816406 Z M 76.5625 231.933594 " fill-opacity="1" fill-rule="nonzero"/><path fill="#ffffff" d="M 53.628906 222.339844 C 52.878906 223.914062 50.332031 229.382812 47.933594 234.480469 C 45.535156 239.574219 43.585938 244.074219 43.585938 244.445312 C 43.585938 244.746094 44.9375 245.046875 46.511719 245.046875 C 49.207031 245.046875 49.507812 244.820312 50.332031 242.421875 L 51.230469 239.800781 L 65.996094 239.800781 L 66.894531 242.421875 C 67.792969 244.898438 68.09375 245.046875 71.089844 245.046875 L 74.3125 245.046875 L 72.890625 242.199219 C 71.242188 238.976562 67.492188 230.882812 64.496094 224.214844 L 62.398438 219.566406 L 58.652344 219.566406 C 55.054688 219.566406 54.828125 219.640625 53.628906 222.339844 Z M 61.125 229.460938 C 62.171875 232.082031 63.070312 234.40625 63.070312 234.703125 C 63.070312 235.078125 61.046875 235.304688 58.574219 235.304688 C 56.101562 235.304688 54.078125 235.078125 54.078125 234.703125 C 54.078125 233.730469 58.125 224.8125 58.652344 224.8125 C 58.875 224.8125 60 226.910156 61.125 229.460938 Z M 61.125 229.460938 " fill-opacity="1" fill-rule="nonzero"/><path fill="#ffffff" d="M 218.796875 221.066406 C 209.726562 225.863281 209.355469 238.300781 218.046875 243.621094 C 220.296875 245.046875 221.867188 245.347656 226.816406 245.421875 C 231.984375 245.421875 233.183594 245.195312 235.582031 243.546875 C 239.855469 240.699219 241.652344 236.804688 241.277344 231.632812 C 240.902344 226.460938 238.878906 223.164062 234.683594 221.066406 C 230.710938 219.042969 222.691406 219.042969 218.796875 221.066406 Z M 232.058594 225.636719 C 237.15625 228.109375 236.558594 237.777344 231.234375 239.800781 C 226.289062 241.675781 219.921875 239.949219 218.273438 236.277344 C 216.324219 232.007812 218.644531 226.011719 222.46875 225.113281 C 223.59375 224.886719 224.941406 224.589844 225.316406 224.4375 C 226.363281 224.0625 230.261719 224.738281 232.058594 225.636719 Z M 232.058594 225.636719 " fill-opacity="1" fill-rule="nonzero"/><path fill="#ffffff" d="M 89.527344 226.085938 L 87.050781 226.386719 L 87.050781 245.046875 L 92.296875 245.046875 L 92.296875 235.304688 C 92.296875 229.910156 92.222656 225.636719 92.148438 225.710938 C 92 225.710938 90.800781 225.9375 89.527344 226.085938 Z M 89.527344 226.085938 " fill-opacity="1" fill-rule="nonzero"/><path fill="#ffffff" d="M 100.09375 226.910156 C 97.917969 228.335938 95.296875 233.054688 95.296875 235.679688 C 95.296875 238.453125 97.84375 242.875 100.316406 244.371094 C 103.539062 246.394531 108.785156 246.019531 111.332031 243.621094 C 113.429688 241.675781 114.03125 241.675781 114.03125 243.546875 C 114.03125 244.746094 114.554688 245.046875 116.878906 245.046875 L 119.652344 245.046875 L 119.652344 226.3125 L 116.878906 226.3125 C 114.554688 226.3125 114.03125 226.613281 114.03125 227.8125 C 114.03125 229.757812 113.429688 229.683594 111.257812 227.734375 C 108.859375 225.414062 103.164062 225.039062 100.09375 226.910156 Z M 111.859375 232.230469 C 113.054688 233.429688 114.03125 235.003906 114.03125 235.679688 C 114.03125 237.925781 109.910156 241.300781 107.136719 241.300781 C 103.3125 241.226562 101.664062 239.574219 101.664062 235.679688 C 101.664062 231.78125 103.3125 230.132812 107.136719 230.058594 C 108.933594 230.058594 110.285156 230.660156 111.859375 232.230469 Z M 111.859375 232.230469 " fill-opacity="1" fill-rule="nonzero"/><path fill="#ffffff" d="M 132.539062 227.359375 C 130.066406 229.085938 129.917969 229.085938 129.542969 227.734375 C 129.242188 226.6875 128.492188 226.3125 126.394531 226.3125 C 123.621094 226.3125 123.621094 226.386719 124.074219 228.636719 C 124.296875 229.910156 124.523438 234.179688 124.523438 238.003906 L 124.523438 245.046875 L 130.515625 245.046875 L 130.515625 239.050781 C 130.515625 233.878906 130.742188 232.90625 132.167969 231.558594 C 134.039062 229.832031 137.113281 229.609375 139.210938 231.109375 C 140.410156 232.007812 140.710938 233.28125 140.933594 238.601562 L 141.160156 245.046875 L 143.707031 245.046875 C 146.554688 245.046875 146.40625 245.570312 146.328125 236.578125 C 146.328125 232.757812 145.953125 230.808594 144.757812 228.933594 C 142.359375 225.039062 136.960938 224.363281 132.539062 227.359375 Z M 132.539062 227.359375 " fill-opacity="1" fill-rule="nonzero"/><path fill="#ffffff" d="M 155.324219 226.910156 C 151.5 228.785156 149.777344 231.632812 149.777344 235.679688 C 149.777344 239.949219 151.574219 242.648438 155.847656 244.671875 C 158.246094 245.796875 158.917969 246.46875 158.542969 247.445312 C 158.246094 248.570312 158.621094 248.792969 161.167969 248.792969 C 163.492188 248.792969 164.238281 249.09375 164.238281 249.992188 C 164.238281 251.042969 163.640625 251.117188 160.117188 250.667969 C 157.421875 250.367188 155.996094 250.441406 155.996094 250.96875 C 155.996094 252.242188 158.695312 253.289062 162.140625 253.289062 C 165.664062 253.289062 166.714844 252.765625 167.386719 250.96875 C 168.0625 249.242188 166.9375 247.820312 164.089844 246.84375 L 161.691406 246.019531 L 165.140625 245.195312 C 168.585938 244.296875 172.484375 240.851562 172.484375 238.601562 C 172.484375 236.953125 167.460938 237.253906 166.5625 238.976562 C 165.589844 240.699219 161.691406 242.199219 159.894531 241.523438 C 157.195312 240.550781 155.246094 238.078125 155.246094 235.53125 C 155.246094 231.933594 157.421875 230.058594 161.617188 230.058594 C 164.316406 230.058594 165.140625 230.359375 166.1875 231.933594 C 167.089844 233.355469 168.0625 233.804688 169.9375 233.804688 C 172.933594 233.804688 173.234375 232.679688 170.835938 229.683594 C 167.6875 225.636719 160.34375 224.289062 155.324219 226.910156 Z M 155.324219 226.910156 " fill-opacity="1" fill-rule="nonzero"/><path fill="#ffffff" d="M 180.277344 226.238281 C 177.203125 227.585938 175.480469 231.03125 175.480469 235.902344 C 175.480469 239.949219 175.707031 240.699219 177.804688 242.722656 C 179.078125 243.996094 180.953125 245.269531 181.925781 245.496094 C 184.773438 246.246094 188.96875 245.269531 190.84375 243.546875 C 192.867188 241.675781 193.464844 241.675781 193.464844 243.546875 C 193.464844 244.746094 193.992188 245.046875 196.3125 245.046875 L 199.160156 245.046875 L 199.160156 226.3125 L 196.390625 226.3125 C 194.066406 226.3125 193.542969 226.613281 193.316406 227.886719 L 193.09375 229.460938 L 190.917969 227.734375 C 188.59375 225.9375 182.898438 225.113281 180.277344 226.238281 Z M 191.367188 232.082031 C 194.066406 234.628906 193.992188 236.355469 191.292969 239.125 C 187.246094 243.097656 180.726562 241.074219 180.726562 235.753906 C 180.726562 230.359375 187.246094 228.109375 191.367188 232.082031 Z M 191.367188 232.082031 " fill-opacity="1" fill-rule="nonzero"/><path fill="#ffffff" d="M 249.972656 226.613281 C 244.726562 228.933594 242.625 236.652344 245.925781 241.300781 C 250.945312 248.34375 263.835938 246.921875 267.058594 238.902344 C 267.507812 237.777344 267.207031 237.550781 264.957031 237.550781 C 263.085938 237.550781 261.886719 238.078125 260.6875 239.5 C 258.214844 242.347656 253.867188 242.347656 251.46875 239.5 C 249.296875 237.027344 249.222656 234.628906 251.246094 232.007812 C 253.417969 229.234375 258.664062 229.234375 260.835938 232.007812 C 262.035156 233.507812 262.859375 233.878906 264.957031 233.65625 L 267.582031 233.429688 L 266.457031 231.03125 C 264.210938 226.460938 255.667969 224.136719 249.972656 226.613281 Z M 249.972656 226.613281 " fill-opacity="1" fill-rule="nonzero"/><path fill="#ffffff" d="M 275.523438 226.535156 C 272.152344 228.109375 270.503906 230.359375 270.128906 234.105469 C 269.605469 238.378906 270.878906 241.597656 273.953125 243.773438 C 275.824219 245.121094 277.25 245.421875 281.894531 245.421875 C 288.039062 245.421875 291.636719 243.847656 291.636719 241.226562 C 291.636719 239.5 291.710938 239.5 287.214844 241 C 282.945312 242.347656 277.921875 241.449219 276.648438 239.050781 C 275.898438 237.628906 276.125 237.550781 283.695312 237.550781 C 288.039062 237.550781 291.710938 237.328125 291.863281 236.953125 C 292.535156 235.828125 290.136719 229.535156 288.339844 227.886719 C 286.015625 225.710938 278.898438 224.960938 275.523438 226.535156 Z M 284.441406 230.882812 C 285.492188 231.707031 286.242188 232.757812 286.015625 233.132812 C 285.34375 234.105469 275.898438 234.03125 275.898438 232.980469 C 275.898438 232.007812 277.398438 230.433594 278.898438 229.832031 C 280.996094 229.007812 282.417969 229.308594 284.441406 230.882812 Z M 284.441406 230.882812 " fill-opacity="1" fill-rule="nonzero"/><path fill="#ffffff" d="M 300.03125 226.386719 C 296.285156 227.8125 294.636719 230.882812 294.636719 235.980469 C 294.636719 239.277344 295.007812 240.175781 297.183594 242.648438 C 299.582031 245.195312 300.105469 245.421875 303.777344 245.421875 C 306.699219 245.421875 308.347656 244.972656 310.074219 243.773438 C 312.394531 242.125 312.46875 242.125 312.84375 243.546875 C 313.144531 244.671875 313.894531 245.046875 315.84375 245.046875 L 318.390625 245.046875 L 318.390625 226.3125 L 315.84375 226.3125 C 313.894531 226.3125 313.144531 226.6875 312.84375 227.8125 C 312.46875 229.234375 312.394531 229.160156 309.773438 227.4375 C 306.925781 225.488281 303.179688 225.113281 300.03125 226.386719 Z M 310.671875 232.007812 C 313.292969 234.628906 313.144531 236.953125 310.296875 239.351562 C 305.800781 243.171875 300.332031 241.148438 300.332031 235.679688 C 300.332031 230.207031 306.550781 227.960938 310.671875 232.007812 Z M 310.671875 232.007812 " fill-opacity="1" fill-rule="nonzero"/><path fill="#ffffff" d="M 331.207031 227.359375 C 328.507812 229.160156 328.359375 229.160156 328.359375 227.8125 C 328.359375 226.535156 327.832031 226.3125 325.285156 226.3125 C 322.4375 226.3125 322.210938 226.460938 322.664062 227.960938 C 322.886719 228.933594 323.113281 233.132812 323.113281 237.328125 L 323.113281 245.046875 L 329.105469 245.046875 L 329.105469 239.050781 C 329.105469 233.878906 329.332031 232.90625 330.753906 231.558594 C 332.855469 229.609375 336.152344 229.609375 338.101562 231.558594 C 339.375 232.832031 339.597656 234.03125 339.597656 239.050781 L 339.597656 245.046875 L 345.59375 245.046875 L 345.59375 239.574219 C 345.59375 229.609375 343.71875 226.3125 337.574219 225.789062 C 334.578125 225.488281 333.453125 225.789062 331.207031 227.359375 Z M 331.207031 227.359375 " fill-opacity="1" fill-rule="nonzero"/><path fill="#ffffff" d="M 349.339844 235.453125 L 349.339844 245.046875 L 354.585938 245.046875 L 354.585938 226.460938 L 351.964844 226.160156 L 349.339844 225.863281 Z M 349.339844 235.453125 " fill-opacity="1" fill-rule="nonzero"/><path fill="#ffffff" d="M 364.402344 226.910156 C 360.582031 228.859375 358.707031 231.78125 358.78125 235.753906 C 358.933594 241.597656 363.652344 245.796875 370.175781 245.796875 C 375.496094 245.796875 381.566406 241.898438 381.566406 238.601562 C 381.566406 236.953125 376.542969 237.253906 375.644531 238.976562 C 373.847656 242.273438 366.800781 242.347656 365.078125 239.050781 C 363.953125 236.953125 364.179688 233.582031 365.527344 231.707031 C 366.425781 230.359375 367.402344 230.058594 370.324219 230.058594 C 373.472656 230.058594 374.222656 230.359375 375.269531 231.933594 C 376.167969 233.355469 377.144531 233.804688 379.015625 233.804688 C 382.015625 233.804688 382.3125 232.679688 379.917969 229.683594 C 376.769531 225.636719 369.425781 224.289062 364.402344 226.910156 Z M 364.402344 226.910156 " fill-opacity="1" fill-rule="nonzero"/><path fill="#ffffff" d="M 389.433594 226.238281 C 387.183594 227.210938 385.535156 229.382812 384.636719 232.605469 C 382.6875 240.027344 387.636719 246.394531 394.753906 245.570312 C 396.777344 245.347656 398.800781 244.597656 399.851562 243.621094 C 401.949219 241.675781 402.546875 241.675781 402.546875 243.546875 C 402.546875 244.746094 403.074219 245.046875 405.394531 245.046875 L 408.167969 245.046875 L 408.167969 226.3125 L 405.394531 226.3125 C 403.148438 226.3125 402.621094 226.613281 402.398438 227.886719 L 402.171875 229.460938 L 400 227.734375 C 397.675781 225.9375 391.980469 225.113281 389.433594 226.238281 Z M 400.375 232.230469 C 401.574219 233.429688 402.546875 235.003906 402.546875 235.679688 C 402.546875 236.355469 401.574219 237.925781 400.375 239.125 C 396.253906 243.25 389.808594 241.074219 389.808594 235.605469 C 389.808594 230.132812 396.253906 228.109375 400.375 232.230469 Z M 400.375 232.230469 " fill-opacity="1" fill-rule="nonzero"/></svg>